<?xml version="1.0" encoding="UTF-8"?>
<!DOCTYPE svg PUBLIC "-//W3C//DTD SVG 1.1//EN" "http://www.w3.org/Graphics/SVG/1.1/DTD/svg11.dtd">
<svg xmlns="http://www.w3.org/2000/svg" version="1.1" width="500px" height="500px" style="shape-rendering:geometricPrecision; text-rendering:geometricPrecision; image-rendering:optimizeQuality; fill-rule:evenodd; clip-rule:evenodd" xmlns:xlink="http://www.w3.org/1999/xlink">
<g><path style="opacity:0.129" fill="#f3e1d0" d="M 194.5,-0.5 C 195.833,-0.5 197.167,-0.5 198.5,-0.5C 199.5,0.166667 200.5,0.833333 201.5,1.5C 200.167,1.5 198.833,1.5 197.5,1.5C 196.5,0.833333 195.5,0.166667 194.5,-0.5 Z"/></g>
<g><path style="opacity:0.063" fill="#f3e6d6" d="M 178.5,0.5 C 176.819,2.00751 174.819,3.00751 172.5,3.5C 173.911,1.46095 175.911,0.460951 178.5,0.5 Z"/></g>
<g><path style="opacity:1" fill="#99785e" d="M 197.5,1.5 C 198.833,1.5 200.167,1.5 201.5,1.5C 208.053,4.05362 213.053,8.38695 216.5,14.5C 214.858,12.9192 212.858,12.2525 210.5,12.5C 209.909,8.03642 207.243,5.86975 202.5,6C 200.937,4.26401 199.27,2.76401 197.5,1.5 Z"/></g>
<g><path style="opacity:0.369" fill="#ebdbd0" d="M 167.5,6.5 C 167.027,7.90632 166.027,8.57298 164.5,8.5C 164.973,7.09368 165.973,6.42702 167.5,6.5 Z"/></g>
<g><path style="opacity:1" fill="#8a5e3b" d="M 178.5,-0.5 C 183.833,-0.5 189.167,-0.5 194.5,-0.5C 195.5,0.166667 196.5,0.833333 197.5,1.5C 199.27,2.76401 200.937,4.26401 202.5,6C 207.243,5.86975 209.909,8.03642 210.5,12.5C 212.858,12.2525 214.858,12.9192 216.5,14.5C 216.678,17.2165 217.178,19.8832 218,22.5C 220.052,24.0585 222.219,25.3918 224.5,26.5C 226.326,28.1475 227.66,30.1475 228.5,32.5C 229.171,33.8471 229.171,35.0138 228.5,36C 208.618,49.3892 188.618,62.5558 168.5,75.5C 167.402,74.603 167.402,73.7697 168.5,73C 167.299,72.0975 166.465,70.9308 166,69.5C 165.667,69.8333 165.333,70.1667 165,70.5C 163.725,68.2827 162.725,65.9494 162,63.5C 160.887,62.695 159.721,62.0283 158.5,61.5C 156.978,56.2105 154.478,51.5438 151,47.5C 149.696,41.5771 149.196,35.5771 149.5,29.5C 152.586,25.263 154.919,20.5963 156.5,15.5C 156.833,14.5 157.5,13.8333 158.5,13.5C 164.235,11.635 168.902,8.30169 172.5,3.5C 174.819,3.00751 176.819,2.00751 178.5,0.5C 178.5,0.166667 178.5,-0.166667 178.5,-0.5 Z"/></g>
<g><path style="opacity:1" fill="#a1856f" d="M 172.5,3.5 C 168.902,8.30169 164.235,11.635 158.5,13.5C 159.911,11.086 161.911,9.41938 164.5,8.5C 166.027,8.57298 167.027,7.90632 167.5,6.5C 168.659,4.74973 170.326,3.74973 172.5,3.5 Z"/></g>
<g><path style="opacity:0.984" fill="#ae937d" d="M 156.5,15.5 C 154.919,20.5963 152.586,25.263 149.5,29.5C 150.258,23.9838 152.591,19.3172 156.5,15.5 Z"/></g>
<g><path style="opacity:1" fill="#997a62" d="M 216.5,14.5 C 219.66,18.1477 222.327,22.1477 224.5,26.5C 222.219,25.3918 220.052,24.0585 218,22.5C 217.178,19.8832 216.678,17.2165 216.5,14.5 Z"/></g>
<g><path style="opacity:0.908" fill="#ca6b71" d="M 273.5,34.5 C 261.486,31.8638 249.486,31.8638 237.5,34.5C 249.485,29.2158 261.485,29.2158 273.5,34.5 Z"/></g>
<g><path style="opacity:1" fill="#be1f2e" d="M 273.5,34.5 C 274.492,34.3284 275.158,34.6618 275.5,35.5C 277.379,38.258 280.046,39.9247 283.5,40.5C 283.973,41.9063 284.973,42.573 286.5,42.5C 287.757,45.4274 289.757,47.7607 292.5,49.5C 292.427,51.0269 293.094,52.0269 294.5,52.5C 294.427,54.0269 295.094,55.0269 296.5,55.5C 296.427,57.0269 297.094,58.0269 298.5,58.5C 298.557,59.609 298.89,60.609 299.5,61.5C 299.5,62.8333 299.5,64.1667 299.5,65.5C 301.514,65.3915 303.18,66.0582 304.5,67.5C 304.427,69.0269 305.094,70.0269 306.5,70.5C 306.427,72.0269 307.094,73.0269 308.5,73.5C 308.427,75.0269 309.094,76.0269 310.5,76.5C 310.427,78.0269 311.094,79.0269 312.5,79.5C 312.427,81.0269 313.094,82.0269 314.5,82.5C 313.862,85.8559 315.196,87.8559 318.5,88.5C 318.427,90.0269 319.094,91.0269 320.5,91.5C 320.427,93.0269 321.094,94.0269 322.5,94.5C 322.5,94.8333 322.5,95.1667 322.5,95.5C 322.663,100.547 322.329,105.547 321.5,110.5C 320.094,110.973 319.427,111.973 319.5,113.5C 318.167,114.167 317.167,115.167 316.5,116.5C 316.5,117.167 316.167,117.5 315.5,117.5C 313.973,117.427 312.973,118.094 312.5,119.5C 310.973,119.427 309.973,120.094 309.5,121.5C 307.973,121.427 306.973,122.094 306.5,123.5C 305.833,123.5 305.167,123.5 304.5,123.5C 302.409,123.318 300.409,123.652 298.5,124.5C 297.614,125.325 297.281,126.325 297.5,127.5C 295.473,127.338 293.473,127.505 291.5,128C 292.38,129.356 292.714,130.856 292.5,132.5C 289.436,132.928 286.436,133.594 283.5,134.5C 283.5,135.833 283.5,137.167 283.5,138.5C 282.564,139.974 281.23,140.974 279.5,141.5C 277.973,141.427 276.973,142.094 276.5,143.5C 273.802,143.845 271.802,145.178 270.5,147.5C 268.973,147.427 267.973,148.094 267.5,149.5C 265.973,149.427 264.973,150.094 264.5,151.5C 262.973,151.427 261.973,152.094 261.5,153.5C 259.973,153.427 258.973,154.094 258.5,155.5C 256.973,155.427 255.973,156.094 255.5,157.5C 253.973,157.427 252.973,158.094 252.5,159.5C 250.973,159.427 249.973,160.094 249.5,161.5C 247.973,161.427 246.973,162.094 246.5,163.5C 244.973,163.427 243.973,164.094 243.5,165.5C 243.158,166.338 242.492,166.672 241.5,166.5C 239.473,166.338 237.473,166.505 235.5,167C 236.712,168.107 236.379,168.607 234.5,168.5C 234.659,166.724 234.325,164.724 233.5,162.5C 232.009,161.756 230.509,161.09 229,160.5C 223.823,150.133 217.657,140.467 210.5,131.5C 207.739,129.036 205.239,129.369 203,132.5C 202.333,134.5 202.333,136.5 203,138.5C 208.967,147.587 215.3,156.254 222,164.5C 223.902,166.884 225.069,169.551 225.5,172.5C 227.5,172.167 229.5,171.833 231.5,171.5C 231.149,174.812 232.482,177.145 235.5,178.5C 236.167,178.833 236.833,179.167 237.5,179.5C 237.427,181.027 238.094,182.027 239.5,182.5C 239.427,184.027 240.094,185.027 241.5,185.5C 241.427,187.027 242.094,188.027 243.5,188.5C 243.427,190.027 244.094,191.027 245.5,191.5C 246.89,192.899 247.89,194.566 248.5,196.5C 238.128,204.871 227.128,212.538 215.5,219.5C 214.167,219.5 212.833,219.5 211.5,219.5C 210.539,216.574 209.873,213.574 209.5,210.5C 206.767,210.297 204.434,209.297 202.5,207.5C 202.446,205.368 201.446,204.035 199.5,203.5C 198.662,203.158 198.328,202.492 198.5,201.5C 198.446,199.368 197.446,198.035 195.5,197.5C 194.662,197.158 194.328,196.492 194.5,195.5C 194.446,193.368 193.446,192.035 191.5,191.5C 190.662,191.158 190.328,190.492 190.5,189.5C 190.446,187.368 189.446,186.035 187.5,185.5C 186.662,185.158 186.328,184.492 186.5,183.5C 186.573,181.973 185.906,180.973 184.5,180.5C 184.155,177.802 182.822,175.802 180.5,174.5C 180.446,172.368 179.446,171.035 177.5,170.5C 176.662,170.158 176.328,169.492 176.5,168.5C 176.573,166.973 175.906,165.973 174.5,165.5C 174.573,163.973 173.906,162.973 172.5,162.5C 172.573,160.973 171.906,159.973 170.5,159.5C 169.925,156.046 168.258,153.379 165.5,151.5C 160.631,143.26 156.464,134.593 153,125.5C 152.5,118.508 152.334,111.508 152.5,104.5C 154.31,101.855 155.31,98.855 155.5,95.5C 157.408,94.5144 158.408,92.8477 158.5,90.5C 159.906,90.0269 160.573,89.0269 160.5,87.5C 162.833,85.8333 164.833,83.8333 166.5,81.5C 166.833,80.5 167.5,79.8333 168.5,79.5C 173.061,81.4524 177.395,83.9524 181.5,87C 190.902,90.3828 200.235,90.2162 209.5,86.5C 210.5,86.5 211.5,86.5 212.5,86.5C 212.351,87.552 212.517,88.552 213,89.5C 216.335,94.3287 219.835,98.9954 223.5,103.5C 224.5,103.833 225.167,104.5 225.5,105.5C 226.845,111.255 229.511,116.255 233.5,120.5C 234.325,121.386 235.325,121.719 236.5,121.5C 237.167,121.5 237.5,121.833 237.5,122.5C 242.791,124.98 245.791,123.314 246.5,117.5C 246.66,115.645 245.993,114.312 244.5,113.5C 241.658,111.156 239.825,108.156 239,104.5C 233.968,96.9469 228.802,89.4469 223.5,82C 221.527,81.5045 219.527,81.3379 217.5,81.5C 219.253,79.7775 221.253,78.2775 223.5,77C 225.464,75.549 226.797,73.7157 227.5,71.5C 232.471,66.0988 234.804,59.5988 234.5,52C 234.099,48.8329 233.766,45.6663 233.5,42.5C 233.5,40.8333 233.5,39.1667 233.5,37.5C 235.619,37.5323 236.952,36.5323 237.5,34.5C 249.486,31.8638 261.486,31.8638 273.5,34.5 Z"/></g>
<g><path style="opacity:1" fill="#b44d4e" d="M 237.5,34.5 C 236.952,36.5323 235.619,37.5323 233.5,37.5C 233.5,39.1667 233.5,40.8333 233.5,42.5C 232.463,41.0697 231.796,39.403 231.5,37.5C 232.167,37.5 232.5,37.1667 232.5,36.5C 233.93,35.4625 235.597,34.7959 237.5,34.5 Z"/></g>
<g><path style="opacity:1" fill="#d47d87" d="M 275.5,35.5 C 278.704,36.3833 281.371,38.0499 283.5,40.5C 280.046,39.9247 277.379,38.258 275.5,35.5 Z"/></g>
<g><path style="opacity:0.035" fill="#f6d0d2" d="M 283.5,40.5 C 285.027,40.427 286.027,41.0937 286.5,42.5C 284.973,42.573 283.973,41.9063 283.5,40.5 Z"/></g>
<g><path style="opacity:1" fill="#efcbb0" d="M 228.5,32.5 C 229.833,33.8333 231.167,35.1667 232.5,36.5C 232.5,37.1667 232.167,37.5 231.5,37.5C 230.399,38.8484 229.399,40.3484 228.5,42C 229.931,42.4652 231.097,43.2986 232,44.5C 232.667,49.5 232.667,54.5 232,59.5C 228.654,60.5203 227.82,62.5203 229.5,65.5C 228.349,67.3254 227.682,69.3254 227.5,71.5C 226.797,73.7157 225.464,75.549 223.5,77C 221.253,78.2775 219.253,79.7775 217.5,81.5C 215.566,82.1103 213.899,83.1103 212.5,84.5C 211.29,84.9321 210.29,85.5987 209.5,86.5C 200.235,90.2162 190.902,90.3828 181.5,87C 177.395,83.9524 173.061,81.4524 168.5,79.5C 168.567,78.0413 168.234,76.7079 167.5,75.5C 167.833,75.5 168.167,75.5 168.5,75.5C 188.618,62.5558 208.618,49.3892 228.5,36C 229.171,35.0138 229.171,33.8471 228.5,32.5 Z"/></g>
<g><path style="opacity:0.69" fill="#ebaab6" d="M 286.5,42.5 C 289.243,44.2393 291.243,46.5726 292.5,49.5C 289.757,47.7607 287.757,45.4274 286.5,42.5 Z"/></g>
<g><path style="opacity:0.463" fill="#e9a6ad" d="M 292.5,49.5 C 293.906,49.9731 294.573,50.9731 294.5,52.5C 293.094,52.0269 292.427,51.0269 292.5,49.5 Z"/></g>
<g><path style="opacity:1" fill="#b19885" d="M 149.5,29.5 C 149.196,35.5771 149.696,41.5771 151,47.5C 154.478,51.5438 156.978,56.2105 158.5,61.5C 149.573,52.455 146.573,41.7884 149.5,29.5 Z"/></g>
<g><path style="opacity:0.486" fill="#e29ca2" d="M 294.5,52.5 C 295.906,52.9731 296.573,53.9731 296.5,55.5C 295.094,55.0269 294.427,54.0269 294.5,52.5 Z"/></g>
<g><path style="opacity:0.498" fill="#e299a6" d="M 296.5,55.5 C 297.906,55.9731 298.573,56.9731 298.5,58.5C 297.094,58.0269 296.427,57.0269 296.5,55.5 Z"/></g>
<g><path style="opacity:1" fill="#f7bfab" d="M 231.5,37.5 C 231.796,39.403 232.463,41.0697 233.5,42.5C 233.766,45.6663 234.099,48.8329 234.5,52C 234.804,59.5988 232.471,66.0988 227.5,71.5C 227.682,69.3254 228.349,67.3254 229.5,65.5C 227.82,62.5203 228.654,60.5203 232,59.5C 232.667,54.5 232.667,49.5 232,44.5C 231.097,43.2986 229.931,42.4652 228.5,42C 229.399,40.3484 230.399,38.8484 231.5,37.5 Z"/></g>
<g><path style="opacity:0.518" fill="#e2979e" d="M 298.5,58.5 C 299.906,58.9731 300.573,59.9731 300.5,61.5C 300.167,61.5 299.833,61.5 299.5,61.5C 298.89,60.609 298.557,59.609 298.5,58.5 Z"/></g>
<g><path style="opacity:1" fill="#b09581" d="M 158.5,61.5 C 159.721,62.0283 160.887,62.695 162,63.5C 162.725,65.9494 163.725,68.2827 165,70.5C 165.333,70.1667 165.667,69.8333 166,69.5C 166.465,70.9308 167.299,72.0975 168.5,73C 167.402,73.7697 167.402,74.603 168.5,75.5C 168.167,75.5 167.833,75.5 167.5,75.5C 164.004,71.1813 161.004,66.5146 158.5,61.5 Z"/></g>
<g><path style="opacity:1" fill="#c65962" d="M 299.5,61.5 C 299.833,61.5 300.167,61.5 300.5,61.5C 302.326,63.1475 303.66,65.1475 304.5,67.5C 303.18,66.0582 301.514,65.3915 299.5,65.5C 299.5,64.1667 299.5,62.8333 299.5,61.5 Z"/></g>
<g><path style="opacity:0.51" fill="#e4989c" d="M 304.5,67.5 C 305.906,67.9731 306.573,68.9731 306.5,70.5C 305.094,70.0269 304.427,69.0269 304.5,67.5 Z"/></g>
<g><path style="opacity:0.839" fill="#b8a191" d="M 445.5,69.5 C 441.154,69.3343 436.821,69.501 432.5,70C 429.647,71.4301 426.647,72.2634 423.5,72.5C 425.858,70.8714 428.524,69.7048 431.5,69C 436.352,68.1849 441.019,68.3516 445.5,69.5 Z"/></g>
<g><path style="opacity:0.502" fill="#e199a0" d="M 306.5,70.5 C 307.906,70.9731 308.573,71.9731 308.5,73.5C 307.094,73.0269 306.427,72.0269 306.5,70.5 Z"/></g>
<g><path style="opacity:0.486" fill="#e4a09f" d="M 308.5,73.5 C 309.906,73.9731 310.573,74.9731 310.5,76.5C 309.094,76.0269 308.427,75.0269 308.5,73.5 Z"/></g>
<g><path style="opacity:1" fill="#8a5f3c" d="M 445.5,69.5 C 449.797,70.146 453.797,71.646 457.5,74C 463.344,77.6827 468.344,82.1827 472.5,87.5C 472.427,89.0269 473.094,90.0269 474.5,90.5C 476.585,92.6845 477.585,95.3511 477.5,98.5C 477.805,106.27 477.138,113.937 475.5,121.5C 474.525,123.795 473.192,125.795 471.5,127.5C 469.394,127.679 467.728,128.679 466.5,130.5C 465.294,132.794 464.294,135.127 463.5,137.5C 462.022,137.238 460.689,137.571 459.5,138.5C 460.246,139.736 460.579,141.07 460.5,142.5C 460.5,143.167 460.167,143.5 459.5,143.5C 458.518,144.141 457.518,144.807 456.5,145.5C 453.5,143.667 450.5,141.833 447.5,140C 432.012,128.09 416.345,116.423 400.5,105C 398.963,103.89 398.297,102.39 398.5,100.5C 403.871,97.1449 407.871,92.4782 410.5,86.5C 413.902,83.6087 417.069,80.6087 420,77.5C 420.483,76.552 420.649,75.552 420.5,74.5C 420.973,73.0937 421.973,72.427 423.5,72.5C 426.647,72.2634 429.647,71.4301 432.5,70C 436.821,69.501 441.154,69.3343 445.5,69.5 Z"/></g>
<g><path style="opacity:0.471" fill="#e89da5" d="M 310.5,76.5 C 311.906,76.9731 312.573,77.9731 312.5,79.5C 311.094,79.0269 310.427,78.0269 310.5,76.5 Z"/></g>
<g><path style="opacity:0.451" fill="#e7a3a4" d="M 312.5,79.5 C 313.906,79.9731 314.573,80.9731 314.5,82.5C 313.094,82.0269 312.427,81.0269 312.5,79.5 Z"/></g>
<g><path style="opacity:0.494" fill="#eab7ba" d="M 166.5,81.5 C 164.833,83.8333 162.833,85.8333 160.5,87.5C 161.5,84.5 163.5,82.5 166.5,81.5 Z"/></g>
<g><path style="opacity:1" fill="#d27579" d="M 314.5,82.5 C 316.822,83.8021 318.155,85.8021 318.5,88.5C 315.196,87.8559 313.862,85.8559 314.5,82.5 Z"/></g>
<g><path style="opacity:1" fill="#962d38" d="M 212.5,84.5 C 212.977,87.0252 214.31,89.0252 216.5,90.5C 220.16,94.1553 222.493,98.4886 223.5,103.5C 219.835,98.9954 216.335,94.3287 213,89.5C 212.517,88.552 212.351,87.552 212.5,86.5C 211.5,86.5 210.5,86.5 209.5,86.5C 210.29,85.5987 211.29,84.9321 212.5,84.5 Z"/></g>
<g><path style="opacity:1" fill="#433f41" d="M 227.5,106.5 C 226.833,106.167 226.167,105.833 225.5,105.5C 225.167,104.5 224.5,103.833 223.5,103.5C 222.493,98.4886 220.16,94.1553 216.5,90.5C 216.5,87.8333 216.5,85.1667 216.5,82.5C 218.604,82.2011 220.604,82.5344 222.5,83.5C 224.79,86.2684 226.79,89.2684 228.5,92.5C 227.738,92.9106 226.738,93.0773 225.5,93C 226.376,94.586 227.376,96.086 228.5,97.5C 229.192,96.9747 229.692,96.3081 230,95.5C 231.849,97.0473 233.349,98.8807 234.5,101C 233.667,103.081 233.667,105.248 234.5,107.5C 232.194,107.007 229.861,106.674 227.5,106.5 Z"/></g>
<g><path style="opacity:0.439" fill="#e8a8ac" d="M 160.5,87.5 C 160.573,89.0269 159.906,90.0269 158.5,90.5C 158.427,88.9731 159.094,87.9731 160.5,87.5 Z"/></g>
<g><path style="opacity:0.231" fill="#e3dbcf" d="M 472.5,87.5 C 473.906,87.9731 474.573,88.9731 474.5,90.5C 473.094,90.0269 472.427,89.0269 472.5,87.5 Z"/></g>
<g><path style="opacity:0.38" fill="#efa8ae" d="M 318.5,88.5 C 319.906,88.9731 320.573,89.9731 320.5,91.5C 319.094,91.0269 318.427,90.0269 318.5,88.5 Z"/></g>
<g><path style="opacity:1" fill="#a1846e" d="M 420.5,74.5 C 420.649,75.552 420.483,76.552 420,77.5C 417.069,80.6087 413.902,83.6087 410.5,86.5C 407.871,92.4782 403.871,97.1449 398.5,100.5C 402.49,93.8736 406.99,87.5402 412,81.5C 414.436,78.5532 417.269,76.2199 420.5,74.5 Z"/></g>
<g><path style="opacity:0.173" fill="#facacd" d="M 320.5,91.5 C 321.906,91.9731 322.573,92.9731 322.5,94.5C 321.094,94.0269 320.427,93.0269 320.5,91.5 Z"/></g>
<g><path style="opacity:0.937" fill="#d78489" d="M 158.5,90.5 C 158.408,92.8477 157.408,94.5144 155.5,95.5C 155.75,93.326 156.75,91.6594 158.5,90.5 Z"/></g>
<g><path style="opacity:0.727" fill="#fde594" d="M 364.5,97.5 C 373.275,95.7197 381.609,97.053 389.5,101.5C 387.5,101.167 385.5,100.833 383.5,100.5C 377.379,98.9809 371.046,97.9809 364.5,97.5 Z"/></g>
<g><path style="opacity:0.867" fill="#d69296" d="M 155.5,95.5 C 155.31,98.855 154.31,101.855 152.5,104.5C 152.528,101.084 153.528,98.0836 155.5,95.5 Z"/></g>
<g><path style="opacity:0.569" fill="#fde699" d="M 361.5,97.5 C 358.2,99.6418 354.533,100.975 350.5,101.5C 353.797,99.3987 357.463,98.0653 361.5,97.5 Z"/></g>
<g><path style="opacity:1" fill="#fcc011" d="M 361.5,97.5 C 362.5,97.5 363.5,97.5 364.5,97.5C 371.046,97.9809 377.379,98.9809 383.5,100.5C 386.237,102.199 389.237,103.533 392.5,104.5C 393.612,105.265 394.279,106.265 394.5,107.5C 393.962,109.117 393.629,110.784 393.5,112.5C 392.009,115.186 391.343,118.186 391.5,121.5C 391.287,124.527 391.953,127.193 393.5,129.5C 394.852,134.725 397.185,139.392 400.5,143.5C 400.916,145.752 402.249,147.252 404.5,148C 403.584,148.278 402.918,148.778 402.5,149.5C 400.1,151.296 398.433,153.63 397.5,156.5C 390.732,164.27 384.732,172.603 379.5,181.5C 378.883,181.611 378.383,181.944 378,182.5C 376.947,190.295 379.781,192.295 386.5,188.5C 387.481,186.691 388.981,185.357 391,184.5C 391.959,182.047 393.126,179.714 394.5,177.5C 397.516,174.48 400.183,171.146 402.5,167.5C 403.026,165.77 404.026,164.436 405.5,163.5C 407.587,162.415 408.92,160.749 409.5,158.5C 409.328,157.508 409.662,156.842 410.5,156.5C 411.404,155.791 411.737,154.791 411.5,153.5C 414.167,154.167 416.833,154.833 419.5,155.5C 420.681,157.067 422.347,157.901 424.5,158C 428.358,158.81 432.024,158.643 435.5,157.5C 437.415,157.784 439.081,157.451 440.5,156.5C 445.379,156.128 449.379,154.128 452.5,150.5C 453.708,149.766 455.041,149.433 456.5,149.5C 457.5,149.833 458.167,150.5 458.5,151.5C 458.877,153.258 459.544,154.925 460.5,156.5C 460.167,157.167 459.833,157.833 459.5,158.5C 461.045,159.452 462.712,159.785 464.5,159.5C 464.343,160.873 464.51,162.207 465,163.5C 467.351,165.751 468.851,168.417 469.5,171.5C 470.302,172.952 470.802,174.618 471,176.5C 471.499,182.491 471.666,188.491 471.5,194.5C 470.076,196.515 469.41,198.848 469.5,201.5C 467.461,202.911 466.461,204.911 466.5,207.5C 460.764,208.337 458.43,211.67 459.5,217.5C 456.62,218.071 453.62,218.404 450.5,218.5C 451.5,219.333 452.5,220.167 453.5,221C 452.494,223.847 451.494,226.681 450.5,229.5C 449.11,230.899 448.11,232.566 447.5,234.5C 447.5,234.833 447.5,235.167 447.5,235.5C 445.983,235.511 444.816,236.177 444,237.5C 442.223,240.059 440.723,242.726 439.5,245.5C 438.25,245.577 437.417,246.244 437,247.5C 435.187,246.391 434.354,247.058 434.5,249.5C 433.167,249.5 431.833,249.5 430.5,249.5C 430.5,251.167 430.5,252.833 430.5,254.5C 424.385,256.25 418.052,256.916 411.5,256.5C 410.548,252.88 408.215,251.213 404.5,251.5C 404.196,250.85 403.863,250.183 403.5,249.5C 404.814,247.548 405.48,245.715 405.5,244C 403.286,243.54 402.619,244.207 403.5,246C 402.833,246.167 402.167,246.333 401.5,246.5C 399.423,245.063 397.09,244.396 394.5,244.5C 393.281,240.62 390.615,238.62 386.5,238.5C 385.235,234.562 382.568,232.562 378.5,232.5C 377.548,228.88 375.215,227.213 371.5,227.5C 371.67,226.178 371.337,225.011 370.5,224C 367.369,221.101 363.702,219.268 359.5,218.5C 358.79,214.639 356.457,212.973 352.5,213.5C 351.235,209.562 348.568,207.562 344.5,207.5C 341.973,204.628 340.307,201.295 339.5,197.5C 338.833,197.167 338.167,196.833 337.5,196.5C 336.378,197.63 335.044,198.297 333.5,198.5C 341.737,186.756 350.57,175.423 360,164.5C 361.859,156.358 358.859,153.358 351,155.5C 343.989,166.187 336.489,176.521 328.5,186.5C 327.067,189.333 326.4,192.333 326.5,195.5C 325.265,195.721 324.265,196.388 323.5,197.5C 322.52,200.086 322.187,202.753 322.5,205.5C 322.167,205.5 321.833,205.5 321.5,205.5C 320.5,205.5 319.5,205.5 318.5,205.5C 317.36,208.025 316.693,210.692 316.5,213.5C 314.738,214.262 313.738,215.596 313.5,217.5C 312.833,217.833 312.167,218.167 311.5,218.5C 309.052,216.716 306.385,215.382 303.5,214.5C 303.649,213.448 303.483,212.448 303,211.5C 298.461,207.647 293.295,204.981 287.5,203.5C 284.883,200.853 281.883,198.686 278.5,197C 276.963,195.89 276.297,194.39 276.5,192.5C 277.124,190.246 278.457,188.579 280.5,187.5C 282.9,185.704 284.567,183.37 285.5,180.5C 289.38,179.281 291.38,176.615 291.5,172.5C 292.906,172.027 293.573,171.027 293.5,169.5C 296.002,167.157 298.502,164.823 301,162.5C 301.49,161.207 301.657,159.873 301.5,158.5C 304.471,156.557 306.471,153.891 307.5,150.5C 309.4,146.268 312.067,142.601 315.5,139.5C 318.933,136.399 321.6,132.732 323.5,128.5C 325.216,126.792 327.216,125.458 329.5,124.5C 329.291,123.914 328.957,123.414 328.5,123C 329.823,122.184 330.489,121.017 330.5,119.5C 330.738,117.596 331.738,116.262 333.5,115.5C 337.526,111.805 341.526,108.138 345.5,104.5C 347.848,104.408 349.514,103.408 350.5,101.5C 354.533,100.975 358.2,99.6418 361.5,97.5 Z"/></g>
<g><path style="opacity:1" fill="#f5d158" d="M 383.5,100.5 C 385.5,100.833 387.5,101.167 389.5,101.5C 391.153,101.66 392.486,102.326 393.5,103.5C 394.278,104.156 394.944,104.989 395.5,106C 395.43,106.765 395.097,107.265 394.5,107.5C 394.279,106.265 393.612,105.265 392.5,104.5C 389.237,103.533 386.237,102.199 383.5,100.5 Z"/></g>
<g><path style="opacity:1" fill="#4b3d3f" d="M 217.5,81.5 C 219.527,81.3379 221.527,81.5045 223.5,82C 228.802,89.4469 233.968,96.9469 239,104.5C 239.825,108.156 241.658,111.156 244.5,113.5C 244.664,116.187 244.497,118.854 244,121.5C 241.959,122.423 239.792,122.756 237.5,122.5C 237.5,121.833 237.167,121.5 236.5,121.5C 233.26,116.693 230.26,111.693 227.5,106.5C 229.861,106.674 232.194,107.007 234.5,107.5C 233.667,105.248 233.667,103.081 234.5,101C 233.349,98.8807 231.849,97.0473 230,95.5C 229.692,96.3081 229.192,96.9747 228.5,97.5C 227.376,96.086 226.376,94.586 225.5,93C 226.738,93.0773 227.738,92.9106 228.5,92.5C 226.79,89.2684 224.79,86.2684 222.5,83.5C 220.604,82.5344 218.604,82.2011 216.5,82.5C 216.5,85.1667 216.5,87.8333 216.5,90.5C 214.31,89.0252 212.977,87.0252 212.5,84.5C 213.899,83.1103 215.566,82.1103 217.5,81.5 Z"/></g>
<g><path style="opacity:0.525" fill="#f6b3b9" d="M 322.5,95.5 C 325.147,100.646 324.813,105.646 321.5,110.5C 322.329,105.547 322.663,100.547 322.5,95.5 Z"/></g>
<g><path style="opacity:0.639" fill="#fadf85" d="M 350.5,101.5 C 349.514,103.408 347.848,104.408 345.5,104.5C 346.659,102.75 348.326,101.75 350.5,101.5 Z"/></g>
<g><path style="opacity:0.634" fill="#cfbdb2" d="M 477.5,98.5 C 480.027,106.372 479.36,114.039 475.5,121.5C 477.138,113.937 477.805,106.27 477.5,98.5 Z"/></g>
<g><path style="opacity:0.773" fill="#f9e185" d="M 345.5,104.5 C 341.526,108.138 337.526,111.805 333.5,115.5C 336.223,110.444 340.223,106.777 345.5,104.5 Z"/></g>
<g><path style="opacity:1" fill="#a02936" d="M 225.5,105.5 C 226.167,105.833 226.833,106.167 227.5,106.5C 230.26,111.693 233.26,116.693 236.5,121.5C 235.325,121.719 234.325,121.386 233.5,120.5C 229.511,116.255 226.845,111.255 225.5,105.5 Z"/></g>
<g><path style="opacity:0.165" fill="#f2c1c3" d="M 321.5,110.5 C 321.573,112.027 320.906,113.027 319.5,113.5C 319.427,111.973 320.094,110.973 321.5,110.5 Z"/></g>
<g><path style="opacity:1" fill="#eeccaf" d="M 398.5,100.5 C 398.297,102.39 398.963,103.89 400.5,105C 416.345,116.423 432.012,128.09 447.5,140C 450.5,141.833 453.5,143.667 456.5,145.5C 457.518,144.807 458.518,144.141 459.5,143.5C 458.5,145.5 457.5,147.5 456.5,149.5C 455.041,149.433 453.708,149.766 452.5,150.5C 448.423,152.524 444.423,154.524 440.5,156.5C 439.081,157.451 437.415,157.784 435.5,157.5C 430.07,157.483 424.737,156.817 419.5,155.5C 416.833,154.833 414.167,154.167 411.5,153.5C 411.737,154.791 411.404,155.791 410.5,156.5C 410.851,153.188 409.518,150.855 406.5,149.5C 405.606,146.451 403.606,144.451 400.5,143.5C 397.185,139.392 394.852,134.725 393.5,129.5C 392.353,123.82 392.353,118.153 393.5,112.5C 393.629,110.784 393.962,109.117 394.5,107.5C 395.097,107.265 395.43,106.765 395.5,106C 394.944,104.989 394.278,104.156 393.5,103.5C 395.664,103.279 397.33,102.279 398.5,100.5 Z"/></g>
<g><path style="opacity:0.004" fill="#fde0e2" d="M 319.5,113.5 C 319.5,115.5 318.5,116.5 316.5,116.5C 317.167,115.167 318.167,114.167 319.5,113.5 Z"/></g>
<g><path style="opacity:0.02" fill="#fbdde0" d="M 315.5,117.5 C 315.027,118.906 314.027,119.573 312.5,119.5C 312.973,118.094 313.973,117.427 315.5,117.5 Z"/></g>
<g><path style="opacity:1" fill="#f3c871" d="M 393.5,112.5 C 392.353,118.153 392.353,123.82 393.5,129.5C 391.953,127.193 391.287,124.527 391.5,121.5C 391.343,118.186 392.009,115.186 393.5,112.5 Z"/></g>
<g><path style="opacity:0.02" fill="#f8dbdd" d="M 312.5,119.5 C 312.027,120.906 311.027,121.573 309.5,121.5C 309.973,120.094 310.973,119.427 312.5,119.5 Z"/></g>
<g><path style="opacity:1" fill="#6a3435" d="M 244.5,113.5 C 245.993,114.312 246.66,115.645 246.5,117.5C 245.791,123.314 242.791,124.98 237.5,122.5C 239.792,122.756 241.959,122.423 244,121.5C 244.497,118.854 244.664,116.187 244.5,113.5 Z"/></g>
<g><path style="opacity:0.016" fill="#f9dcdd" d="M 309.5,121.5 C 309.027,122.906 308.027,123.573 306.5,123.5C 306.973,122.094 307.973,121.427 309.5,121.5 Z"/></g>
<g><path style="opacity:0.004" fill="#fbd7da" d="M 304.5,123.5 C 305.167,123.5 305.833,123.5 306.5,123.5C 306.027,124.906 305.027,125.573 303.5,125.5C 303.833,124.833 304.167,124.167 304.5,123.5 Z"/></g>
<g><path style="opacity:1" fill="#fad469" d="M 330.5,119.5 C 330.489,121.017 329.823,122.184 328.5,123C 328.957,123.414 329.291,123.914 329.5,124.5C 327.216,125.458 325.216,126.792 323.5,128.5C 325.458,125.208 327.791,122.208 330.5,119.5 Z"/></g>
<g><path style="opacity:1" fill="#c24c51" d="M 304.5,123.5 C 304.167,124.167 303.833,124.833 303.5,125.5C 300.106,128.221 296.439,130.554 292.5,132.5C 292.714,130.856 292.38,129.356 291.5,128C 293.473,127.505 295.473,127.338 297.5,127.5C 297.281,126.325 297.614,125.325 298.5,124.5C 300.409,123.652 302.409,123.318 304.5,123.5 Z"/></g>
<g><path style="opacity:1" fill="#ab1628" d="M 234.5,168.5 C 233.1,169.1 232.1,170.1 231.5,171.5C 229.5,171.833 227.5,172.167 225.5,172.5C 225.069,169.551 223.902,166.884 222,164.5C 215.3,156.254 208.967,147.587 203,138.5C 202.333,136.5 202.333,134.5 203,132.5C 205.239,129.369 207.739,129.036 210.5,131.5C 217.657,140.467 223.823,150.133 229,160.5C 230.509,161.09 232.009,161.756 233.5,162.5C 234.325,164.724 234.659,166.724 234.5,168.5 Z"/></g>
<g><path style="opacity:0.671" fill="#fde69d" d="M 323.5,128.5 C 321.6,132.732 318.933,136.399 315.5,139.5C 317.435,135.293 320.102,131.627 323.5,128.5 Z"/></g>
<g><path style="opacity:0.992" fill="#cf7478" d="M 152.5,104.5 C 152.334,111.508 152.5,118.508 153,125.5C 156.464,134.593 160.631,143.26 165.5,151.5C 152.786,138.039 148.452,122.373 152.5,104.5 Z"/></g>
<g><path style="opacity:0.996" fill="#a68b76" d="M 471.5,127.5 C 468.188,132.804 464.521,137.804 460.5,142.5C 460.579,141.07 460.246,139.736 459.5,138.5C 460.689,137.571 462.022,137.238 463.5,137.5C 464.294,135.127 465.294,132.794 466.5,130.5C 467.728,128.679 469.394,127.679 471.5,127.5 Z"/></g>
<g><path style="opacity:1" fill="#c65a5f" d="M 292.5,132.5 C 290.025,135.241 287.025,137.241 283.5,138.5C 283.5,137.167 283.5,135.833 283.5,134.5C 286.436,133.594 289.436,132.928 292.5,132.5 Z"/></g>
<g><path style="opacity:0.008" fill="#fcd5da" d="M 279.5,141.5 C 279.027,142.906 278.027,143.573 276.5,143.5C 276.973,142.094 277.973,141.427 279.5,141.5 Z"/></g>
<g><path style="opacity:0.31" fill="#f6b7c0" d="M 276.5,143.5 C 274.853,145.326 272.853,146.66 270.5,147.5C 271.802,145.178 273.802,143.845 276.5,143.5 Z"/></g>
<g><path style="opacity:1" fill="#eab748" d="M 400.5,143.5 C 403.606,144.451 405.606,146.451 406.5,149.5C 405.5,149.5 404.5,149.5 403.5,149.5C 403.167,149.5 402.833,149.5 402.5,149.5C 402.918,148.778 403.584,148.278 404.5,148C 402.249,147.252 400.916,145.752 400.5,143.5 Z"/></g>
<g><path style="opacity:0.765" fill="#85b0c3" d="M 143.5,147.5 C 136.841,146.217 130.174,146.217 123.5,147.5C 130.195,143.568 136.862,143.568 143.5,147.5 Z"/></g>
<g><path style="opacity:0.027" fill="#fad9dc" d="M 270.5,147.5 C 270.027,148.906 269.027,149.573 267.5,149.5C 267.973,148.094 268.973,147.427 270.5,147.5 Z"/></g>
<g><path style="opacity:0.573" fill="#95c0d1" d="M 143.5,147.5 C 146.522,148.522 148.522,150.522 149.5,153.5C 147.118,151.785 145.118,149.785 143.5,147.5 Z"/></g>
<g><path style="opacity:0.031" fill="#fadcdd" d="M 267.5,149.5 C 267.027,150.906 266.027,151.573 264.5,151.5C 264.973,150.094 265.973,149.427 267.5,149.5 Z"/></g>
<g><path style="opacity:1" fill="#05638d" d="M 143.5,147.5 C 145.118,149.785 147.118,151.785 149.5,153.5C 149.427,155.027 150.094,156.027 151.5,156.5C 151.402,158.553 152.069,160.22 153.5,161.5C 153.402,163.553 154.069,165.22 155.5,166.5C 155.402,168.553 156.069,170.22 157.5,171.5C 157.102,177.625 159.102,182.625 163.5,186.5C 166.541,193.28 169.208,200.28 171.5,207.5C 173.099,212.707 174.099,218.04 174.5,223.5C 175.5,223.5 176.5,223.5 177.5,223.5C 177.411,226.725 178.077,229.725 179.5,232.5C 178.18,236.22 177.18,240.054 176.5,244C 178.527,244.498 180.527,244.331 182.5,243.5C 184.417,243.754 185.751,244.754 186.5,246.5C 182.709,246.659 179.042,247.325 175.5,248.5C 173.5,248.5 171.5,248.5 169.5,248.5C 169.5,249.5 169.5,250.5 169.5,251.5C 167.473,251.338 165.473,251.505 163.5,252C 160.754,253.75 157.754,254.75 154.5,255C 151.154,258.172 147.154,259.672 142.5,259.5C 140.914,262.271 140.414,265.271 141,268.5C 142.305,271.306 144.472,272.14 147.5,271C 160.161,266.641 172.828,262.474 185.5,258.5C 190.152,255.944 191.152,252.611 188.5,248.5C 188.5,248.167 188.5,247.833 188.5,247.5C 197.167,244.5 205.833,241.5 214.5,238.5C 216.888,239.219 218.388,240.885 219,243.5C 223.511,255.039 228.011,266.539 232.5,278C 231.429,278.852 230.429,279.685 229.5,280.5C 227.447,280.402 225.78,281.069 224.5,282.5C 220.703,282.872 217.37,284.206 214.5,286.5C 213.07,287.537 211.403,288.204 209.5,288.5C 206.15,288.335 202.817,288.502 199.5,289C 200.684,290.145 200.684,291.312 199.5,292.5C 199.167,292.5 198.833,292.5 198.5,292.5C 197.504,292.586 196.671,292.252 196,291.5C 195.481,292.516 194.647,293.182 193.5,293.5C 189.503,294.637 185.503,295.637 181.5,296.5C 181.5,297.5 181.5,298.5 181.5,299.5C 180.07,299.579 178.736,299.246 177.5,298.5C 172.812,301.582 167.812,303.915 162.5,305.5C 162.137,306.183 161.804,306.85 161.5,307.5C 159.447,307.402 157.78,308.069 156.5,309.5C 155.22,310.931 153.553,311.598 151.5,311.5C 145.279,313.628 138.946,315.461 132.5,317C 127.177,317.499 121.844,317.666 116.5,317.5C 113.785,315.928 110.785,314.928 107.5,314.5C 103.495,313.502 100.161,311.502 97.5,308.5C 96.4154,306.413 94.7488,305.08 92.5,304.5C 91.5473,301.166 90.0473,298.166 88,295.5C 86.8873,294.695 85.7206,294.028 84.5,293.5C 84.5,293.167 84.5,292.833 84.5,292.5C 86.4273,289.233 88.7606,286.233 91.5,283.5C 92.8333,282.5 94.1667,281.5 95.5,280.5C 96.3764,280.631 97.0431,280.298 97.5,279.5C 100.552,271.573 101.218,263.573 99.5,255.5C 99.5,254.167 99.5,252.833 99.5,251.5C 104.589,249.377 109.923,247.211 115.5,245C 118.672,243.303 121.672,241.47 124.5,239.5C 129.594,238.024 134.594,236.357 139.5,234.5C 143.212,227.707 141.212,224.874 133.5,226C 128.935,228.132 124.268,229.965 119.5,231.5C 114.871,232.876 110.204,234.376 105.5,236C 101.538,237.463 98.2044,239.63 95.5,242.5C 92.9325,237.596 89.5992,233.263 85.5,229.5C 82.386,227.035 79.0527,225.035 75.5,223.5C 74.7375,222.732 73.7375,222.232 72.5,222C 67.1771,221.501 61.8437,221.334 56.5,221.5C 52.935,208.02 54.2684,195.02 60.5,182.5C 60.7376,180.596 61.7376,179.262 63.5,178.5C 66.5,176.167 69.1667,173.5 71.5,170.5C 76.8242,166.377 82.8242,163.377 89.5,161.5C 91.5273,161.662 93.5273,161.495 95.5,161C 97.0009,159.748 98.6675,158.748 100.5,158C 106.761,157.284 112.094,154.784 116.5,150.5C 118.509,148.935 120.843,147.935 123.5,147.5C 130.174,146.217 136.841,146.217 143.5,147.5 Z"/></g>
<g><path style="opacity:0.69" fill="#fce690" d="M 307.5,150.5 C 306.471,153.891 304.471,156.557 301.5,158.5C 303.016,155.467 305.016,152.8 307.5,150.5 Z"/></g>
<g><path style="opacity:0.035" fill="#fbd1d3" d="M 264.5,151.5 C 264.027,152.906 263.027,153.573 261.5,153.5C 261.973,152.094 262.973,151.427 264.5,151.5 Z"/></g>
<g><path style="opacity:1" fill="#f6cc87" d="M 452.5,150.5 C 449.379,154.128 445.379,156.128 440.5,156.5C 444.423,154.524 448.423,152.524 452.5,150.5 Z"/></g>
<g><path style="opacity:0.929" fill="#df8f93" d="M 165.5,151.5 C 168.258,153.379 169.925,156.046 170.5,159.5C 168.336,157.178 166.669,154.511 165.5,151.5 Z"/></g>
<g><path style="opacity:0.031" fill="#fcd0d2" d="M 261.5,153.5 C 261.027,154.906 260.027,155.573 258.5,155.5C 258.973,154.094 259.973,153.427 261.5,153.5 Z"/></g>
<g><path style="opacity:1" fill="#5d4f27" d="M 402.5,149.5 C 402.833,149.5 403.167,149.5 403.5,149.5C 402.535,152.773 400.535,155.106 397.5,156.5C 398.433,153.63 400.1,151.296 402.5,149.5 Z"/></g>
<g><path style="opacity:0.294" fill="#a8d2e3" d="M 149.5,153.5 C 150.906,153.973 151.573,154.973 151.5,156.5C 150.094,156.027 149.427,155.027 149.5,153.5 Z"/></g>
<g><path style="opacity:1" fill="#e6a709" d="M 333.5,198.5 C 332.833,198.5 332.167,198.5 331.5,198.5C 330.035,197.263 328.368,196.263 326.5,195.5C 326.4,192.333 327.067,189.333 328.5,186.5C 336.489,176.521 343.989,166.187 351,155.5C 358.859,153.358 361.859,156.358 360,164.5C 350.57,175.423 341.737,186.756 333.5,198.5 Z"/></g>
<g><path style="opacity:1" fill="#417f9b" d="M 116.5,150.5 C 112.094,154.784 106.761,157.284 100.5,158C 98.6675,158.748 97.0009,159.748 95.5,161C 93.5273,161.495 91.5273,161.662 89.5,161.5C 98.1829,157.267 107.183,153.6 116.5,150.5 Z"/></g>
<g><path style="opacity:0.02" fill="#fddbe0" d="M 258.5,155.5 C 258.027,156.906 257.027,157.573 255.5,157.5C 255.973,156.094 256.973,155.427 258.5,155.5 Z"/></g>
<g><path style="opacity:1" fill="#facd84" d="M 419.5,155.5 C 424.737,156.817 430.07,157.483 435.5,157.5C 432.024,158.643 428.358,158.81 424.5,158C 422.347,157.901 420.681,157.067 419.5,155.5 Z"/></g>
<g><path style="opacity:1" fill="#f7cb52" d="M 458.5,151.5 C 463.645,155.782 467.312,161.115 469.5,167.5C 469.5,168.833 469.5,170.167 469.5,171.5C 468.851,168.417 467.351,165.751 465,163.5C 464.51,162.207 464.343,160.873 464.5,159.5C 462.712,159.785 461.045,159.452 459.5,158.5C 459.833,157.833 460.167,157.167 460.5,156.5C 459.544,154.925 458.877,153.258 458.5,151.5 Z"/></g>
<g><path style="opacity:0.02" fill="#fbdcdc" d="M 255.5,157.5 C 255.027,158.906 254.027,159.573 252.5,159.5C 252.973,158.094 253.973,157.427 255.5,157.5 Z"/></g>
<g><path style="opacity:0.149" fill="#c3e4f0" d="M 151.5,156.5 C 152.931,157.78 153.598,159.447 153.5,161.5C 152.069,160.22 151.402,158.553 151.5,156.5 Z"/></g>
<g><path style="opacity:0.016" fill="#fbe0e5" d="M 252.5,159.5 C 252.027,160.906 251.027,161.573 249.5,161.5C 249.973,160.094 250.973,159.427 252.5,159.5 Z"/></g>
<g><path style="opacity:0.078" fill="#fbd8da" d="M 170.5,159.5 C 171.906,159.973 172.573,160.973 172.5,162.5C 171.094,162.027 170.427,161.027 170.5,159.5 Z"/></g>
<g><path style="opacity:0.004" fill="#fbe3e4" d="M 249.5,161.5 C 249.027,162.906 248.027,163.573 246.5,163.5C 246.973,162.094 247.973,161.427 249.5,161.5 Z"/></g>
<g><path style="opacity:0.776" fill="#f9de82" d="M 301.5,158.5 C 301.657,159.873 301.49,161.207 301,162.5C 298.502,164.823 296.002,167.157 293.5,169.5C 295.435,165.293 298.102,161.627 301.5,158.5 Z"/></g>
<g><path style="opacity:1" fill="#ac8c2c" d="M 409.5,158.5 C 408.92,160.749 407.587,162.415 405.5,163.5C 406.08,161.251 407.413,159.585 409.5,158.5 Z"/></g>
<g><path style="opacity:0.141" fill="#bee7f5" d="M 153.5,161.5 C 154.931,162.78 155.598,164.447 155.5,166.5C 154.069,165.22 153.402,163.553 153.5,161.5 Z"/></g>
<g><path style="opacity:0.094" fill="#fbd3d4" d="M 172.5,162.5 C 173.906,162.973 174.573,163.973 174.5,165.5C 173.094,165.027 172.427,164.027 172.5,162.5 Z"/></g>
<g><path style="opacity:0.004" fill="#fddde4" d="M 246.5,163.5 C 246.027,164.906 245.027,165.573 243.5,165.5C 243.973,164.094 244.973,163.427 246.5,163.5 Z"/></g>
<g><path style="opacity:0.094" fill="#fbd4d5" d="M 174.5,165.5 C 175.906,165.973 176.573,166.973 176.5,168.5C 175.094,168.027 174.427,167.027 174.5,165.5 Z"/></g>
<g><path style="opacity:0.125" fill="#c8e5f3" d="M 155.5,166.5 C 156.931,167.78 157.598,169.447 157.5,171.5C 156.069,170.22 155.402,168.553 155.5,166.5 Z"/></g>
<g><path style="opacity:0.702" fill="#e7b0b5" d="M 177.5,170.5 C 179.446,171.035 180.446,172.368 180.5,174.5C 179.026,173.564 178.026,172.23 177.5,170.5 Z"/></g>
<g><path style="opacity:1" fill="#b13e46" d="M 241.5,166.5 C 239.853,168.326 237.853,169.66 235.5,170.5C 232.833,172.5 232.833,174.5 235.5,176.5C 235.5,177.167 235.5,177.833 235.5,178.5C 232.482,177.145 231.149,174.812 231.5,171.5C 232.1,170.1 233.1,169.1 234.5,168.5C 236.379,168.607 236.712,168.107 235.5,167C 237.473,166.505 239.473,166.338 241.5,166.5 Z"/></g>
<g><path style="opacity:0.694" fill="#fae4a6" d="M 293.5,169.5 C 293.573,171.027 292.906,172.027 291.5,172.5C 291.427,170.973 292.094,169.973 293.5,169.5 Z"/></g>
<g><path style="opacity:1" fill="#44413d" d="M 403.5,149.5 C 404.5,149.5 405.5,149.5 406.5,149.5C 409.518,150.855 410.851,153.188 410.5,156.5C 409.662,156.842 409.328,157.508 409.5,158.5C 407.413,159.585 406.08,161.251 405.5,163.5C 404.026,164.436 403.026,165.77 402.5,167.5C 400.537,169.279 398.371,170.946 396,172.5C 395.392,174.154 394.892,175.821 394.5,177.5C 391.96,178.887 390.293,181.054 389.5,184C 388.551,184.617 387.718,184.451 387,183.5C 386.506,185.134 386.34,186.801 386.5,188.5C 379.637,190.257 377.304,187.924 379.5,181.5C 384.732,172.603 390.732,164.27 397.5,156.5C 400.535,155.106 402.535,152.773 403.5,149.5 Z"/></g>
<g><path style="opacity:0.031" fill="#f5c4c6" d="M 235.5,170.5 C 234.167,172.5 234.167,174.5 235.5,176.5C 232.833,174.5 232.833,172.5 235.5,170.5 Z"/></g>
<g><path style="opacity:1" fill="#645021" d="M 402.5,167.5 C 400.183,171.146 397.516,174.48 394.5,177.5C 394.892,175.821 395.392,174.154 396,172.5C 398.371,170.946 400.537,169.279 402.5,167.5 Z"/></g>
<g><path style="opacity:0.506" fill="#aacedd" d="M 71.5,170.5 C 69.1667,173.5 66.5,176.167 63.5,178.5C 65.1667,174.833 67.8333,172.167 71.5,170.5 Z"/></g>
<g><path style="opacity:0.125" fill="#f5c0c5" d="M 180.5,174.5 C 182.822,175.802 184.155,177.802 184.5,180.5C 182.674,178.853 181.34,176.853 180.5,174.5 Z"/></g>
<g><path style="opacity:0.533" fill="#efb2b4" d="M 235.5,176.5 C 236.906,176.973 237.573,177.973 237.5,179.5C 236.833,179.167 236.167,178.833 235.5,178.5C 235.5,177.833 235.5,177.167 235.5,176.5 Z"/></g>
<g><path style="opacity:1" fill="#f9d16d" d="M 291.5,172.5 C 291.38,176.615 289.38,179.281 285.5,180.5C 287.016,177.467 289.016,174.8 291.5,172.5 Z"/></g>
<g><path style="opacity:1" fill="#6093ac" d="M 157.5,171.5 C 160.262,176.105 162.262,181.105 163.5,186.5C 159.102,182.625 157.102,177.625 157.5,171.5 Z"/></g>
<g><path style="opacity:0.31" fill="#f3b5b9" d="M 237.5,179.5 C 238.906,179.973 239.573,180.973 239.5,182.5C 238.094,182.027 237.427,181.027 237.5,179.5 Z"/></g>
<g><path style="opacity:0.757" fill="#fde191" d="M 285.5,180.5 C 284.567,183.37 282.9,185.704 280.5,187.5C 281.433,184.63 283.1,182.296 285.5,180.5 Z"/></g>
<g><path style="opacity:0.706" fill="#f7dc91" d="M 469.5,167.5 C 470.776,169.562 471.61,171.896 472,174.5C 472.232,178.555 472.732,182.555 473.5,186.5C 472.92,189.311 472.254,191.977 471.5,194.5C 471.666,188.491 471.499,182.491 471,176.5C 470.802,174.618 470.302,172.952 469.5,171.5C 469.5,170.167 469.5,168.833 469.5,167.5 Z"/></g>
<g><path style="opacity:0.137" fill="#f8c9ce" d="M 184.5,180.5 C 185.906,180.973 186.573,181.973 186.5,183.5C 185.094,183.027 184.427,182.027 184.5,180.5 Z"/></g>
<g><path style="opacity:0.302" fill="#f2b9c0" d="M 239.5,182.5 C 240.906,182.973 241.573,183.973 241.5,185.5C 240.094,185.027 239.427,184.027 239.5,182.5 Z"/></g>
<g><path style="opacity:1" fill="#5b4b28" d="M 394.5,177.5 C 393.126,179.714 391.959,182.047 391,184.5C 388.981,185.357 387.481,186.691 386.5,188.5C 386.34,186.801 386.506,185.134 387,183.5C 387.718,184.451 388.551,184.617 389.5,184C 390.293,181.054 391.96,178.887 394.5,177.5 Z"/></g>
<g><path style="opacity:0.722" fill="#e6a9ad" d="M 187.5,185.5 C 189.446,186.035 190.446,187.368 190.5,189.5C 189.026,188.564 188.026,187.23 187.5,185.5 Z"/></g>
<g><path style="opacity:1" fill="#55431c" d="M 379.5,181.5 C 377.304,187.924 379.637,190.257 386.5,188.5C 379.781,192.295 376.947,190.295 378,182.5C 378.383,181.944 378.883,181.611 379.5,181.5 Z"/></g>
<g><path style="opacity:0.306" fill="#f3bcbc" d="M 241.5,185.5 C 242.906,185.973 243.573,186.973 243.5,188.5C 242.094,188.027 241.427,187.027 241.5,185.5 Z"/></g>
<g><path style="opacity:0.616" fill="#9fc7db" d="M 60.5,182.5 C 54.2684,195.02 52.935,208.02 56.5,221.5C 56.5,221.833 56.5,222.167 56.5,222.5C 56.1667,222.5 55.8333,222.5 55.5,222.5C 50.651,208.277 52.3177,194.944 60.5,182.5 Z"/></g>
<g><path style="opacity:0.31" fill="#f3b9bf" d="M 243.5,188.5 C 244.906,188.973 245.573,189.973 245.5,191.5C 244.094,191.027 243.427,190.027 243.5,188.5 Z"/></g>
<g><path style="opacity:0.741" fill="#e4aab0" d="M 191.5,191.5 C 193.446,192.035 194.446,193.368 194.5,195.5C 193.026,194.564 192.026,193.23 191.5,191.5 Z"/></g>
<g><path style="opacity:0.518" fill="#fae58f" d="M 471.5,194.5 C 471.59,197.152 470.924,199.485 469.5,201.5C 469.41,198.848 470.076,196.515 471.5,194.5 Z"/></g>
<g><path style="opacity:0.769" fill="#e7a8ad" d="M 195.5,197.5 C 197.446,198.035 198.446,199.368 198.5,201.5C 197.026,200.564 196.026,199.23 195.5,197.5 Z"/></g>
<g><path style="opacity:1" fill="#f9d057" d="M 326.5,195.5 C 328.368,196.263 330.035,197.263 331.5,198.5C 330.167,198.5 328.833,198.5 327.5,198.5C 326.094,198.973 325.427,199.973 325.5,201.5C 324.974,203.23 323.974,204.564 322.5,205.5C 322.187,202.753 322.52,200.086 323.5,197.5C 324.265,196.388 325.265,195.721 326.5,195.5 Z"/></g>
<g><path style="opacity:1" fill="#facc4c" d="M 344.5,207.5 C 339.886,204.883 335.553,201.883 331.5,198.5C 332.167,198.5 332.833,198.5 333.5,198.5C 335.044,198.297 336.378,197.63 337.5,196.5C 338.167,196.833 338.833,197.167 339.5,197.5C 340.307,201.295 341.973,204.628 344.5,207.5 Z"/></g>
<g><path style="opacity:0.024" fill="#fef3b6" d="M 327.5,198.5 C 327.573,200.027 326.906,201.027 325.5,201.5C 325.427,199.973 326.094,198.973 327.5,198.5 Z"/></g>
<g><path style="opacity:0.796" fill="#e4a8ab" d="M 199.5,203.5 C 201.446,204.035 202.446,205.368 202.5,207.5C 201.026,206.564 200.026,205.23 199.5,203.5 Z"/></g>
<g><path style="opacity:0.698" fill="#fbe199" d="M 469.5,201.5 C 469.539,204.089 468.539,206.089 466.5,207.5C 466.461,204.911 467.461,202.911 469.5,201.5 Z"/></g>
<g><path style="opacity:1" fill="#efcdb1" d="M 276.5,192.5 C 276.297,194.39 276.963,195.89 278.5,197C 281.883,198.686 284.883,200.853 287.5,203.5C 294.339,208.832 301.339,213.999 308.5,219C 309.749,219.74 310.749,219.573 311.5,218.5C 312.167,218.167 312.833,217.833 313.5,217.5C 311.887,220.132 310.22,222.798 308.5,225.5C 314.924,228.189 321.257,230.856 327.5,233.5C 325.193,233.014 323.027,233.014 321,233.5C 318.099,242.71 314.932,251.71 311.5,260.5C 309.993,262.289 308.66,264.289 307.5,266.5C 306.534,268.396 306.201,270.396 306.5,272.5C 302.903,269.192 298.569,267.859 293.5,268.5C 293.5,277.167 293.5,285.833 293.5,294.5C 279.489,293.898 265.489,293.231 251.5,292.5C 251.5,285.5 251.5,278.5 251.5,271.5C 247.306,271.55 243.306,272.383 239.5,274C 238.635,275.359 237.635,276.526 236.5,277.5C 234.876,277.64 233.71,276.973 233,275.5C 230.495,268.795 228.662,262.128 227.5,255.5C 226.5,255.5 225.5,255.5 224.5,255.5C 223.556,249.821 221.556,244.654 218.5,240C 221.097,237.683 221.93,234.85 221,231.5C 218.295,228.964 215.795,226.297 213.5,223.5C 212.5,223.167 211.833,222.5 211.5,221.5C 213.38,221.771 214.713,221.104 215.5,219.5C 227.128,212.538 238.128,204.871 248.5,196.5C 252.479,201.765 256.479,207.099 260.5,212.5C 266.237,206.103 271.57,199.436 276.5,192.5 Z M 277.5,239.5 C 278.582,240.594 279.248,241.927 279.5,243.5C 276.733,248.468 276.067,253.634 277.5,259C 272.511,259.499 267.511,259.666 262.5,259.5C 259.957,251.771 257.457,244.105 255,236.5C 258.017,234.494 261.017,232.494 264,230.5C 268.389,233.733 272.889,236.733 277.5,239.5 Z"/></g>
<g><path style="opacity:1" fill="#f5c53e" d="M 287.5,203.5 C 293.295,204.981 298.461,207.647 303,211.5C 303.483,212.448 303.649,213.448 303.5,214.5C 306.385,215.382 309.052,216.716 311.5,218.5C 310.749,219.573 309.749,219.74 308.5,219C 301.339,213.999 294.339,208.832 287.5,203.5 Z"/></g>
<g><path style="opacity:0.063" fill="#feefc0" d="M 321.5,205.5 C 321.833,205.5 322.167,205.5 322.5,205.5C 322.262,207.404 321.262,208.738 319.5,209.5C 319.733,207.938 320.4,206.605 321.5,205.5 Z"/></g>
<g><path style="opacity:1" fill="#f5d25f" d="M 344.5,207.5 C 348.568,207.562 351.235,209.562 352.5,213.5C 349.467,211.984 346.8,209.984 344.5,207.5 Z"/></g>
<g><path style="opacity:1" fill="#f8d05f" d="M 321.5,205.5 C 320.4,206.605 319.733,207.938 319.5,209.5C 319.262,211.404 318.262,212.738 316.5,213.5C 316.693,210.692 317.36,208.025 318.5,205.5C 319.5,205.5 320.5,205.5 321.5,205.5 Z"/></g>
<g><path style="opacity:1" fill="#f7cc50" d="M 466.5,207.5 C 464.938,211.392 462.605,214.725 459.5,217.5C 458.43,211.67 460.764,208.337 466.5,207.5 Z"/></g>
<g><path style="opacity:1" fill="#fbce58" d="M 352.5,213.5 C 356.457,212.973 358.79,214.639 359.5,218.5C 356.883,217.214 354.55,215.547 352.5,213.5 Z"/></g>
<g><path style="opacity:1" fill="#bd4e52" d="M 202.5,207.5 C 204.434,209.297 206.767,210.297 209.5,210.5C 209.873,213.574 210.539,216.574 211.5,219.5C 212.833,219.5 214.167,219.5 215.5,219.5C 214.713,221.104 213.38,221.771 211.5,221.5C 208.5,216.833 205.5,212.167 202.5,207.5 Z"/></g>
<g><path style="opacity:0.125" fill="#ffeba5" d="M 316.5,213.5 C 316.262,215.404 315.262,216.738 313.5,217.5C 313.738,215.596 314.738,214.262 316.5,213.5 Z"/></g>
<g><path style="opacity:1" fill="#facc4d" d="M 459.5,217.5 C 457.218,221.777 454.551,225.777 451.5,229.5C 451.167,229.5 450.833,229.5 450.5,229.5C 451.494,226.681 452.494,223.847 453.5,221C 452.5,220.167 451.5,219.333 450.5,218.5C 453.62,218.404 456.62,218.071 459.5,217.5 Z"/></g>
<g><path style="opacity:1" fill="#f7cf5a" d="M 359.5,218.5 C 363.702,219.268 367.369,221.101 370.5,224C 371.337,225.011 371.67,226.178 371.5,227.5C 366.929,225.262 362.929,222.262 359.5,218.5 Z"/></g>
<g><path style="opacity:1" fill="#6a8b95" d="M 56.5,222.5 C 56.5,222.167 56.5,221.833 56.5,221.5C 61.8437,221.334 67.1771,221.501 72.5,222C 73.7375,222.232 74.7375,222.732 75.5,223.5C 69.2026,222.68 62.8692,222.347 56.5,222.5 Z"/></g>
<g><path style="opacity:1" fill="#eeccb1" d="M 55.5,222.5 C 55.8333,222.5 56.1667,222.5 56.5,222.5C 62.8692,222.347 69.2026,222.68 75.5,223.5C 79.0527,225.035 82.386,227.035 85.5,229.5C 88.5435,233.895 91.2102,238.562 93.5,243.5C 93.9569,244.298 94.6236,244.631 95.5,244.5C 96.986,250.227 97.986,256.061 98.5,262C 98.3333,264.833 98.1667,267.667 98,270.5C 97.6667,269.833 97.3333,269.167 97,268.5C 95.8817,273.871 94.0483,278.871 91.5,283.5C 88.7606,286.233 86.4273,289.233 84.5,292.5C 83.1667,292.5 81.8333,292.5 80.5,292.5C 71.424,270.055 62.7574,247.389 54.5,224.5C 52.8333,224.5 51.1667,224.5 49.5,224.5C 51.2143,223.262 53.2143,222.595 55.5,222.5 Z"/></g>
<g><path style="opacity:1" fill="#fbd469" d="M 371.5,227.5 C 375.215,227.213 377.548,228.88 378.5,232.5C 375.63,231.567 373.296,229.9 371.5,227.5 Z"/></g>
<g><path style="opacity:1" fill="#ae927c" d="M 49.5,224.5 C 46.3035,228.015 42.3035,229.681 37.5,229.5C 41.2025,227.321 45.2025,225.655 49.5,224.5 Z"/></g>
<g><path style="opacity:1" fill="#f0dac7" d="M 277.5,239.5 C 278.496,239.414 279.329,239.748 280,240.5C 280.167,241.833 280.333,243.167 280.5,244.5C 279.565,247.801 278.565,251.135 277.5,254.5C 278.095,257.14 278.428,259.807 278.5,262.5C 272.491,262.666 266.491,262.499 260.5,262C 259.54,260.581 258.707,259.081 258,257.5C 256.33,251.667 255.163,245.667 254.5,239.5C 253.5,239.5 252.5,239.5 251.5,239.5C 251.343,238.127 251.51,236.793 252,235.5C 254.984,233.51 257.818,231.343 260.5,229C 266.11,227.464 270.11,229.298 272.5,234.5C 274.071,235.309 275.738,235.643 277.5,235.5C 277.5,236.833 277.5,238.167 277.5,239.5 Z M 277.5,239.5 C 272.889,236.733 268.389,233.733 264,230.5C 261.017,232.494 258.017,234.494 255,236.5C 257.457,244.105 259.957,251.771 262.5,259.5C 267.511,259.666 272.511,259.499 277.5,259C 276.067,253.634 276.733,248.468 279.5,243.5C 279.248,241.927 278.582,240.594 277.5,239.5 Z"/></g>
<g><path style="opacity:0.039" fill="#fef3ba" d="M 450.5,229.5 C 450.833,229.5 451.167,229.5 451.5,229.5C 450.876,231.754 449.543,233.421 447.5,234.5C 448.11,232.566 449.11,230.899 450.5,229.5 Z"/></g>
<g><path style="opacity:1" fill="#f9d463" d="M 378.5,232.5 C 382.568,232.562 385.235,234.562 386.5,238.5C 383.467,236.984 380.8,234.984 378.5,232.5 Z"/></g>
<g><path style="opacity:1" fill="#c7c7bd" d="M 85.5,229.5 C 89.5992,233.263 92.9325,237.596 95.5,242.5C 95.5,243.167 95.5,243.833 95.5,244.5C 94.6236,244.631 93.9569,244.298 93.5,243.5C 91.2102,238.562 88.5435,233.895 85.5,229.5 Z"/></g>
<g><path style="opacity:1" fill="#404042" d="M 124.5,239.5 C 116.964,242.009 109.464,244.676 102,247.5C 98.9569,246.263 97.7902,243.93 98.5,240.5C 104.152,237.859 110.152,236.025 116.5,235C 117.71,233.961 118.71,232.794 119.5,231.5C 124.268,229.965 128.935,228.132 133.5,226C 141.212,224.874 143.212,227.707 139.5,234.5C 134.594,236.357 129.594,238.024 124.5,239.5 Z"/></g>
<g><path style="opacity:1" fill="#8a5e3b" d="M 49.5,224.5 C 51.1667,224.5 52.8333,224.5 54.5,224.5C 62.7574,247.389 71.424,270.055 80.5,292.5C 79.2196,293.931 77.5529,294.598 75.5,294.5C 65.9777,297.585 56.4777,300.252 47,302.5C 41.0906,300.492 34.9239,299.492 28.5,299.5C 24.3944,294.484 20.3944,289.484 16.5,284.5C 15.0687,283.22 14.4021,281.553 14.5,279.5C 14.2634,276.353 13.4301,273.353 12,270.5C 11.3333,266.5 11.3333,262.5 12,258.5C 12.3333,258.833 12.6667,259.167 13,259.5C 13.1764,256.118 13.6764,252.785 14.5,249.5C 17.0591,246.609 18.7258,243.276 19.5,239.5C 24.556,234.635 30.556,231.301 37.5,229.5C 42.3035,229.681 46.3035,228.015 49.5,224.5 Z"/></g>
<g><path style="opacity:1" fill="#307494" d="M 171.5,207.5 C 177.628,220.101 182.962,233.101 187.5,246.5C 187.167,246.5 186.833,246.5 186.5,246.5C 185.751,244.754 184.417,243.754 182.5,243.5C 180.527,244.331 178.527,244.498 176.5,244C 177.18,240.054 178.18,236.22 179.5,232.5C 178.077,229.725 177.411,226.725 177.5,223.5C 176.5,223.5 175.5,223.5 174.5,223.5C 174.099,218.04 173.099,212.707 171.5,207.5 Z"/></g>
<g><path style="opacity:1" fill="#8ac35e" d="M 335.5,236.5 C 338.165,238.591 341.165,240.424 344.5,242C 348.06,243.237 351.727,243.737 355.5,243.5C 359.579,244.637 363.579,245.971 367.5,247.5C 368.335,248.943 369.668,249.943 371.5,250.5C 375.526,251.521 379.526,252.521 383.5,253.5C 388.801,256.269 394.468,258.269 400.5,259.5C 403.66,262 407.327,263.333 411.5,263.5C 415.182,266.008 419.182,268.008 423.5,269.5C 426.784,271.117 429.451,273.45 431.5,276.5C 432.837,280.833 435.003,284.833 438,288.5C 442.17,298.308 443.67,308.641 442.5,319.5C 441.833,319.5 441.5,319.833 441.5,320.5C 437.154,320.334 432.821,320.501 428.5,321C 425.809,321.156 423.476,321.989 421.5,323.5C 415.322,326.009 410.322,330.009 406.5,335.5C 404.674,336.438 402.841,337.438 401,338.5C 397.703,336.773 394.203,335.44 390.5,334.5C 388.912,333.99 387.745,332.99 387,331.5C 386.107,332.081 385.107,332.415 384,332.5C 381.411,331.014 378.577,330.347 375.5,330.5C 371.515,329.512 367.515,328.512 363.5,327.5C 356.653,325.516 354.153,328.183 356,335.5C 361.209,337.949 366.376,340.283 371.5,342.5C 375.917,346.602 381.25,348.602 387.5,348.5C 387.147,350.635 387.98,351.968 390,352.5C 392.77,351.652 395.603,351.319 398.5,351.5C 397.317,356.754 396.65,362.088 396.5,367.5C 397.5,367.5 398.5,367.5 399.5,367.5C 401.307,376.98 406.307,384.313 414.5,389.5C 414.5,391.167 414.5,392.833 414.5,394.5C 413.5,394.5 412.5,394.5 411.5,394.5C 411.307,397.308 410.64,399.975 409.5,402.5C 408.5,402.5 407.5,402.5 406.5,402.5C 406.027,406.638 403.693,408.638 399.5,408.5C 399.5,409.5 399.5,410.5 399.5,411.5C 397.801,411.34 396.134,411.506 394.5,412C 393.516,414.125 391.85,415.292 389.5,415.5C 384.579,416.867 379.579,417.867 374.5,418.5C 365.159,416.494 355.826,414.494 346.5,412.5C 342.429,410.365 338.095,409.032 333.5,408.5C 325.351,404.782 317.018,401.449 308.5,398.5C 307.167,396.5 305.5,394.833 303.5,393.5C 302.85,391.565 302.517,389.565 302.5,387.5C 301.59,381.369 303.09,376.035 307,371.5C 306.884,366.37 308.218,361.703 311,357.5C 311.333,354.833 311.667,352.167 312,349.5C 314.346,343.963 316.179,338.297 317.5,332.5C 317.5,332.167 317.5,331.833 317.5,331.5C 320.583,327.223 323.083,322.556 325,317.5C 327.244,307.265 330.411,297.265 334.5,287.5C 335.267,288.172 335.934,289.005 336.5,290C 348.778,294.316 361.111,298.649 373.5,303C 376.167,303.667 378.833,303.667 381.5,303C 384.572,299.229 384.072,296.063 380,293.5C 371.892,290.688 363.892,287.688 356,284.5C 350.577,283.122 345.244,281.455 340,279.5C 338.124,279.525 336.624,280.191 335.5,281.5C 333.914,280.852 332.247,280.352 330.5,280C 330.833,279.667 331.167,279.333 331.5,279C 326.652,278.886 321.985,278.053 317.5,276.5C 316.025,274.59 314.025,273.424 311.5,273C 310.903,271.938 310.57,270.772 310.5,269.5C 313.953,259.414 317.287,249.247 320.5,239C 322,237.5 323.5,236 325,234.5C 328.35,235.975 331.85,236.642 335.5,236.5 Z"/></g>
<g><path style="opacity:0.982" fill="#9cc373" d="M 327.5,233.5 C 330.443,233.98 333.11,234.98 335.5,236.5C 331.85,236.642 328.35,235.975 325,234.5C 323.5,236 322,237.5 320.5,239C 317.287,249.247 313.953,259.414 310.5,269.5C 310.57,270.772 310.903,271.938 311.5,273C 314.025,273.424 316.025,274.59 317.5,276.5C 315.883,275.962 314.216,275.629 312.5,275.5C 310.46,274.454 309.127,272.787 308.5,270.5C 309.506,267.149 310.506,263.816 311.5,260.5C 314.932,251.71 318.099,242.71 321,233.5C 323.027,233.014 325.193,233.014 327.5,233.5 Z"/></g>
<g><path style="opacity:1" fill="#f6d978" d="M 386.5,238.5 C 390.615,238.62 393.281,240.62 394.5,244.5C 391.467,242.984 388.8,240.984 386.5,238.5 Z"/></g>
<g><path style="opacity:0.965" fill="#a9cd8c" d="M 335.5,236.5 C 342.436,238.313 349.103,240.646 355.5,243.5C 351.727,243.737 348.06,243.237 344.5,242C 341.165,240.424 338.165,238.591 335.5,236.5 Z"/></g>
<g><path style="opacity:0.082" fill="#feecaa" d="M 447.5,235.5 C 445.183,239.146 442.516,242.48 439.5,245.5C 440.723,242.726 442.223,240.059 444,237.5C 444.816,236.177 445.983,235.511 447.5,235.5 Z"/></g>
<g><path style="opacity:1" fill="#324856" d="M 119.5,231.5 C 118.71,232.794 117.71,233.961 116.5,235C 110.152,236.025 104.152,237.859 98.5,240.5C 97.7902,243.93 98.9569,246.263 102,247.5C 109.464,244.676 116.964,242.009 124.5,239.5C 121.672,241.47 118.672,243.303 115.5,245C 109.923,247.211 104.589,249.377 99.5,251.5C 97.8998,249.297 96.5665,246.964 95.5,244.5C 95.5,243.833 95.5,243.167 95.5,242.5C 98.2044,239.63 101.538,237.463 105.5,236C 110.204,234.376 114.871,232.876 119.5,231.5 Z"/></g>
<g><path style="opacity:1" fill="#f9ca49" d="M 404.5,251.5 C 400.608,249.938 397.275,247.605 394.5,244.5C 397.09,244.396 399.423,245.063 401.5,246.5C 402.167,246.333 402.833,246.167 403.5,246C 402.619,244.207 403.286,243.54 405.5,244C 405.48,245.715 404.814,247.548 403.5,249.5C 403.863,250.183 404.196,250.85 404.5,251.5 Z"/></g>
<g><path style="opacity:1" fill="#f7d05d" d="M 439.5,245.5 C 433.298,257.452 423.965,261.118 411.5,256.5C 418.052,256.916 424.385,256.25 430.5,254.5C 430.5,252.833 430.5,251.167 430.5,249.5C 431.833,249.5 433.167,249.5 434.5,249.5C 434.354,247.058 435.187,246.391 437,247.5C 437.417,246.244 438.25,245.577 439.5,245.5 Z"/></g>
<g><path style="opacity:1" fill="#345494" d="M 186.5,246.5 C 186.833,246.5 187.167,246.5 187.5,246.5C 188.167,246.5 188.5,246.833 188.5,247.5C 188.5,247.833 188.5,248.167 188.5,248.5C 188.675,255.176 187.175,255.843 184,250.5C 183.691,252.807 182.858,254.974 181.5,257C 177.971,258.466 174.305,259.466 170.5,260C 167.755,262.035 164.755,263.701 161.5,265C 155.879,266.429 150.379,268.263 145,270.5C 143.558,269.788 142.725,268.621 142.5,267C 143.885,265.403 144.551,263.57 144.5,261.5C 155.58,258.488 165.913,254.154 175.5,248.5C 179.042,247.325 182.709,246.659 186.5,246.5 Z"/></g>
<g><path style="opacity:1" fill="#c3dead" d="M 367.5,247.5 C 373.141,248.932 378.475,250.932 383.5,253.5C 379.526,252.521 375.526,251.521 371.5,250.5C 369.668,249.943 368.335,248.943 367.5,247.5 Z"/></g>
<g><path style="opacity:1" fill="#f8ce5f" d="M 404.5,251.5 C 408.215,251.213 410.548,252.88 411.5,256.5C 408.63,255.567 406.296,253.9 404.5,251.5 Z"/></g>
<g><path style="opacity:1" fill="#957359" d="M 19.5,239.5 C 18.7258,243.276 17.0591,246.609 14.5,249.5C 13.6764,252.785 13.1764,256.118 13,259.5C 12.6667,259.167 12.3333,258.833 12,258.5C 11.3333,262.5 11.3333,266.5 12,270.5C 13.4301,273.353 14.2634,276.353 14.5,279.5C 10.3975,272.828 8.73079,265.495 9.5,257.5C 10.2466,250.002 13.5799,244.002 19.5,239.5 Z"/></g>
<g><path style="opacity:0.192" fill="#e1f7d6" d="M 383.5,253.5 C 389.515,254.726 395.182,256.726 400.5,259.5C 394.468,258.269 388.801,256.269 383.5,253.5 Z"/></g>
<g><path style="opacity:1" fill="#205b91" d="M 175.5,248.5 C 165.913,254.154 155.58,258.488 144.5,261.5C 144.551,263.57 143.885,265.403 142.5,267C 142.725,268.621 143.558,269.788 145,270.5C 150.379,268.263 155.879,266.429 161.5,265C 164.755,263.701 167.755,262.035 170.5,260C 174.305,259.466 177.971,258.466 181.5,257C 182.858,254.974 183.691,252.807 184,250.5C 187.175,255.843 188.675,255.176 188.5,248.5C 191.152,252.611 190.152,255.944 185.5,258.5C 172.828,262.474 160.161,266.641 147.5,271C 144.472,272.14 142.305,271.306 141,268.5C 140.414,265.271 140.914,262.271 142.5,259.5C 147.154,259.672 151.154,258.172 154.5,255C 157.754,254.75 160.754,253.75 163.5,252C 165.473,251.505 167.473,251.338 169.5,251.5C 169.5,250.5 169.5,249.5 169.5,248.5C 171.5,248.5 173.5,248.5 175.5,248.5 Z"/></g>
<g><path style="opacity:1" fill="#cdc9bc" d="M 95.5,244.5 C 96.5665,246.964 97.8998,249.297 99.5,251.5C 99.5,252.833 99.5,254.167 99.5,255.5C 100.438,264.267 99.1044,272.6 95.5,280.5C 94.1667,281.5 92.8333,282.5 91.5,283.5C 94.0483,278.871 95.8817,273.871 97,268.5C 97.3333,269.167 97.6667,269.833 98,270.5C 98.1667,267.667 98.3333,264.833 98.5,262C 97.986,256.061 96.986,250.227 95.5,244.5 Z"/></g>
<g><path style="opacity:0.29" fill="#d8efc4" d="M 400.5,259.5 C 404.537,260.065 408.203,261.399 411.5,263.5C 407.327,263.333 403.66,262 400.5,259.5 Z"/></g>
<g><path style="opacity:0.361" fill="#d2ecc1" d="M 411.5,263.5 C 416.086,264.46 420.086,266.46 423.5,269.5C 419.182,268.008 415.182,266.008 411.5,263.5 Z"/></g>
<g><path style="opacity:0.996" fill="#d5daa8" d="M 311.5,260.5 C 310.506,263.816 309.506,267.149 308.5,270.5C 309.127,272.787 310.46,274.454 312.5,275.5C 310.214,275.405 308.214,274.738 306.5,273.5C 306.5,273.167 306.5,272.833 306.5,272.5C 306.201,270.396 306.534,268.396 307.5,266.5C 308.66,264.289 309.993,262.289 311.5,260.5 Z"/></g>
<g><path style="opacity:1" fill="#e5d4c6" d="M 213.5,223.5 C 215.795,226.297 218.295,228.964 221,231.5C 221.93,234.85 221.097,237.683 218.5,240C 221.556,244.654 223.556,249.821 224.5,255.5C 225.5,255.5 226.5,255.5 227.5,255.5C 228.662,262.128 230.495,268.795 233,275.5C 233.71,276.973 234.876,277.64 236.5,277.5C 234.574,279.293 232.241,280.293 229.5,280.5C 230.429,279.685 231.429,278.852 232.5,278C 228.011,266.539 223.511,255.039 219,243.5C 218.388,240.885 216.888,239.219 214.5,238.5C 216.382,237.249 218.382,236.082 220.5,235C 217.516,231.527 215.183,227.694 213.5,223.5 Z"/></g>
<g><path style="opacity:0.094" fill="#ebdacd" d="M 9.5,257.5 C 8.73079,265.495 10.3975,272.828 14.5,279.5C 14.4021,281.553 15.0687,283.22 16.5,284.5C 16.5,285.5 16.5,286.5 16.5,287.5C 10.0444,278.351 7.71102,268.351 9.5,257.5 Z"/></g>
<g><path style="opacity:1" fill="#427589" d="M 99.5,255.5 C 101.218,263.573 100.552,271.573 97.5,279.5C 97.0431,280.298 96.3764,280.631 95.5,280.5C 99.1044,272.6 100.438,264.267 99.5,255.5 Z"/></g>
<g><path style="opacity:0.11" fill="#cbedf5" d="M 229.5,280.5 C 228.22,281.931 226.553,282.598 224.5,282.5C 225.78,281.069 227.447,280.402 229.5,280.5 Z"/></g>
<g><path style="opacity:1" fill="#75ab4d" d="M 334.5,287.5 C 334.325,285.379 334.659,283.379 335.5,281.5C 336.624,280.191 338.124,279.525 340,279.5C 345.244,281.455 350.577,283.122 356,284.5C 363.892,287.688 371.892,290.688 380,293.5C 384.072,296.063 384.572,299.229 381.5,303C 378.833,303.667 376.167,303.667 373.5,303C 361.111,298.649 348.778,294.316 336.5,290C 335.934,289.005 335.267,288.172 334.5,287.5 Z"/></g>
<g><path style="opacity:0.137" fill="#c5e8f1" d="M 224.5,282.5 C 221.47,284.403 218.137,285.737 214.5,286.5C 217.37,284.206 220.703,282.872 224.5,282.5 Z"/></g>
<g><path style="opacity:1" fill="#568ca7" d="M 209.5,288.5 C 206.322,290.009 202.989,291.342 199.5,292.5C 200.684,291.312 200.684,290.145 199.5,289C 202.817,288.502 206.15,288.335 209.5,288.5 Z"/></g>
<g><path style="opacity:1" fill="#9e806a" d="M 16.5,284.5 C 20.3944,289.484 24.3944,294.484 28.5,299.5C 22.8333,297.167 18.8333,293.167 16.5,287.5C 16.5,286.5 16.5,285.5 16.5,284.5 Z"/></g>
<g><path style="opacity:1" fill="#cfc1bd" d="M 306.5,272.5 C 306.5,272.833 306.5,273.167 306.5,273.5C 302.573,272.469 298.739,271.135 295,269.5C 294.833,313.002 294.333,356.335 293.5,399.5C 293.5,364.833 293.5,330.167 293.5,295.5C 279.167,295.5 264.833,295.5 250.5,295.5C 250.5,303.833 250.5,312.167 250.5,320.5C 250.768,322.099 250.434,323.432 249.5,324.5C 248.951,307.48 248.951,290.48 249.5,273.5C 245.167,274.833 240.833,276.167 236.5,277.5C 237.635,276.526 238.635,275.359 239.5,274C 243.306,272.383 247.306,271.55 251.5,271.5C 251.5,278.5 251.5,285.5 251.5,292.5C 265.489,293.231 279.489,293.898 293.5,294.5C 293.5,285.833 293.5,277.167 293.5,268.5C 298.569,267.859 302.903,269.192 306.5,272.5 Z"/></g>
<g><path style="opacity:1" fill="#4f87a1" d="M 198.5,292.5 C 193.152,295.4 187.485,297.733 181.5,299.5C 181.5,298.5 181.5,297.5 181.5,296.5C 185.503,295.637 189.503,294.637 193.5,293.5C 194.647,293.182 195.481,292.516 196,291.5C 196.671,292.252 197.504,292.586 198.5,292.5 Z"/></g>
<g><path style="opacity:1" fill="#6b9db0" d="M 84.5,293.5 C 85.7206,294.028 86.8873,294.695 88,295.5C 90.0473,298.166 91.5473,301.166 92.5,304.5C 89.0669,301.399 86.4002,297.732 84.5,293.5 Z"/></g>
<g><path style="opacity:0.933" fill="#997961" d="M 75.5,294.5 C 67.9798,298.586 59.9798,301.586 51.5,303.5C 45.044,303.768 38.7107,303.101 32.5,301.5C 30.847,301.34 29.5137,300.674 28.5,299.5C 34.9239,299.492 41.0906,300.492 47,302.5C 56.4777,300.252 65.9777,297.585 75.5,294.5 Z"/></g>
<g><path style="opacity:1" fill="#1f315e" d="M 293.5,399.5 C 292.883,399.611 292.383,399.944 292,400.5C 291.503,403.146 291.336,405.813 291.5,408.5C 291.204,410.403 290.537,412.07 289.5,413.5C 287.75,414.659 286.75,416.326 286.5,418.5C 285.5,419.167 284.5,419.833 283.5,420.5C 283.631,419.624 283.298,418.957 282.5,418.5C 281.833,419.833 281.167,421.167 280.5,422.5C 279.325,421.145 278.325,421.312 277.5,423C 279.932,424.087 279.598,424.587 276.5,424.5C 276.5,425.5 276.5,426.5 276.5,427.5C 275.5,427.5 274.5,427.5 273.5,427.5C 273.5,428.5 273.5,429.5 273.5,430.5C 271.801,430.34 270.134,430.506 268.5,431C 268.833,431.333 269.167,431.667 269.5,432C 267.881,432.236 266.881,433.069 266.5,434.5C 263.598,435.578 260.598,436.244 257.5,436.5C 255.167,436.5 252.833,436.5 250.5,436.5C 250.101,432.597 248.935,428.93 247,425.5C 245.959,422.364 246.793,419.864 249.5,418C 250.635,417.251 251.635,417.417 252.5,418.5C 253.121,421.564 253.955,424.564 255,427.5C 257.815,419.773 254.982,415.44 246.5,414.5C 246.301,416.96 245.635,419.293 244.5,421.5C 241.526,418.862 238.526,416.195 235.5,413.5C 233.929,412.691 232.262,412.357 230.5,412.5C 228.447,412.598 226.78,411.931 225.5,410.5C 223.189,408.932 220.522,408.098 217.5,408C 219.594,406.745 220.594,404.912 220.5,402.5C 219.399,391.187 219.232,379.853 220,368.5C 220.333,368.167 220.667,367.833 221,367.5C 221.023,378.325 221.69,388.992 223,399.5C 223.428,387.718 223.595,376.051 223.5,364.5C 220.866,361.035 217.7,358.035 214,355.5C 213.418,350.961 211.251,349.794 207.5,352C 212.711,354.433 212.711,356.933 207.5,359.5C 206.174,374.995 206.174,390.328 207.5,405.5C 210.236,408.208 209.57,409.875 205.5,410.5C 196.728,410.967 189.728,414.633 184.5,421.5C 180.519,426.069 177.852,431.403 176.5,437.5C 173.482,437.665 170.482,437.498 167.5,437C 163.991,435.241 160.325,434.074 156.5,433.5C 156.027,432.094 155.027,431.427 153.5,431.5C 151.596,431.262 150.262,430.262 149.5,428.5C 148.415,426.413 146.749,425.08 144.5,424.5C 143.864,422.205 142.531,420.539 140.5,419.5C 140.573,417.973 139.906,416.973 138.5,416.5C 137.662,416.158 137.328,415.492 137.5,414.5C 137.662,412.473 137.495,410.473 137,408.5C 136.667,408.833 136.333,409.167 136,409.5C 135.392,407.934 134.558,406.6 133.5,405.5C 132.555,383.522 132.222,361.522 132.5,339.5C 134.008,337.819 135.008,335.819 135.5,333.5C 136.911,331.086 138.911,329.419 141.5,328.5C 143.655,328.628 145.655,328.128 147.5,327C 178.165,326.5 208.832,326.333 239.5,326.5C 240.878,327.234 242.378,327.901 244,328.5C 244.167,343.178 244.667,357.845 245.5,372.5C 246.748,373.04 247.915,373.707 249,374.5C 251.041,373.577 253.208,373.244 255.5,373.5C 255.5,358.833 255.5,344.167 255.5,329.5C 251.092,328.945 250.425,326.945 253.5,323.5C 253.484,321.484 252.484,320.484 250.5,320.5C 250.5,312.167 250.5,303.833 250.5,295.5C 264.833,295.5 279.167,295.5 293.5,295.5C 293.5,330.167 293.5,364.833 293.5,399.5 Z"/></g>
<g><path style="opacity:0.514" fill="#c7b5a8" d="M 32.5,301.5 C 38.7107,303.101 45.044,303.768 51.5,303.5C 44.9423,305.174 38.609,304.508 32.5,301.5 Z"/></g>
<g><path style="opacity:0.71" fill="#95bfd4" d="M 92.5,304.5 C 94.7488,305.08 96.4154,306.413 97.5,308.5C 95.2512,307.92 93.5846,306.587 92.5,304.5 Z"/></g>
<g><path style="opacity:1" fill="#598faa" d="M 181.5,299.5 C 175.116,302.686 168.449,305.352 161.5,307.5C 161.804,306.85 162.137,306.183 162.5,305.5C 167.812,303.915 172.812,301.582 177.5,298.5C 178.736,299.246 180.07,299.579 181.5,299.5 Z"/></g>
<g><path style="opacity:0.592" fill="#c9e4b2" d="M 431.5,276.5 C 442.76,288.939 446.427,303.272 442.5,319.5C 443.67,308.641 442.17,298.308 438,288.5C 435.003,284.833 432.837,280.833 431.5,276.5 Z"/></g>
<g><path style="opacity:0.996" fill="#afd293" d="M 312.5,275.5 C 314.216,275.629 315.883,275.962 317.5,276.5C 321.985,278.053 326.652,278.886 331.5,279C 331.167,279.333 330.833,279.667 330.5,280C 332.247,280.352 333.914,280.852 335.5,281.5C 334.659,283.379 334.325,285.379 334.5,287.5C 330.411,297.265 327.244,307.265 325,317.5C 323.083,322.556 320.583,327.223 317.5,331.5C 322.823,316.183 328.156,300.849 333.5,285.5C 333.182,284.353 332.516,283.519 331.5,283C 324.948,280.767 318.615,278.267 312.5,275.5 Z"/></g>
<g><path style="opacity:0.333" fill="#99c6d6" d="M 161.5,307.5 C 160.22,308.931 158.553,309.598 156.5,309.5C 157.78,308.069 159.447,307.402 161.5,307.5 Z"/></g>
<g><path style="opacity:0.231" fill="#acd6e0" d="M 107.5,314.5 C 110.785,314.928 113.785,315.928 116.5,317.5C 113.084,317.472 110.084,316.472 107.5,314.5 Z"/></g>
<g><path style="opacity:0.396" fill="#a9cedf" d="M 151.5,311.5 C 140.58,318.15 128.914,320.15 116.5,317.5C 121.844,317.666 127.177,317.499 132.5,317C 138.946,315.461 145.279,313.628 151.5,311.5 Z"/></g>
<g><path style="opacity:1" fill="#ced096" d="M 441.5,320.5 C 435.23,322.332 428.564,323.332 421.5,323.5C 423.476,321.989 425.809,321.156 428.5,321C 432.821,320.501 437.154,320.334 441.5,320.5 Z"/></g>
<g><path style="opacity:0.686" fill="#646e8a" d="M 249.5,324.5 C 246.663,326.402 243.329,327.069 239.5,326.5C 208.832,326.333 178.165,326.5 147.5,327C 145.655,328.128 143.655,328.628 141.5,328.5C 142.842,327.207 144.509,326.374 146.5,326C 180.875,325.82 215.208,325.32 249.5,324.5 Z"/></g>
<g><path style="opacity:0.996" fill="#9e816a" d="M 444.5,322.5 C 455.398,325.633 466.065,329.466 476.5,334C 477.381,334.708 478.047,335.542 478.5,336.5C 467.543,333.044 456.71,329.044 446,324.5C 445.098,324.743 444.265,325.077 443.5,325.5C 443.263,324.209 443.596,323.209 444.5,322.5 Z"/></g>
<g><path style="opacity:1" fill="#edccaf" d="M 442.5,319.5 C 442.782,320.778 443.449,321.778 444.5,322.5C 443.596,323.209 443.263,324.209 443.5,325.5C 435.265,347.66 427.265,369.993 419.5,392.5C 418.504,392.586 417.671,392.252 417,391.5C 416.722,392.416 416.222,393.082 415.5,393.5C 415.768,391.901 415.434,390.568 414.5,389.5C 402.66,378.641 398.326,365.308 401.5,349.5C 401.5,348.833 401.5,348.167 401.5,347.5C 401.5,345.833 401.5,344.167 401.5,342.5C 402.117,342.611 402.617,342.944 403,343.5C 404.768,341.088 405.935,338.421 406.5,335.5C 410.322,330.009 415.322,326.009 421.5,323.5C 428.564,323.332 435.23,322.332 441.5,320.5C 441.5,319.833 441.833,319.5 442.5,319.5 Z"/></g>
<g><path style="opacity:1" fill="#475b38" d="M 363.5,327.5 C 357.563,326.918 355.729,329.252 358,334.5C 364.378,337.435 370.545,340.435 376.5,343.5C 374.883,342.962 373.216,342.629 371.5,342.5C 366.376,340.283 361.209,337.949 356,335.5C 354.153,328.183 356.653,325.516 363.5,327.5 Z"/></g>
<g><path style="opacity:1" fill="#8a5e3b" d="M 478.5,336.5 C 479.757,339.427 481.757,341.761 484.5,343.5C 485.326,346.485 486.659,349.151 488.5,351.5C 488.916,360.284 488.249,368.951 486.5,377.5C 484.552,379.32 483.552,381.654 483.5,384.5C 483.155,387.198 481.822,389.198 479.5,390.5C 477.5,391.833 475.833,393.5 474.5,395.5C 474.5,396.167 474.167,396.5 473.5,396.5C 471.973,396.427 470.973,397.094 470.5,398.5C 468.784,398.629 467.117,398.962 465.5,399.5C 459.189,400.427 452.856,400.594 446.5,400C 442.427,399.093 438.761,397.426 435.5,395C 430.173,394.057 424.84,393.223 419.5,392.5C 427.265,369.993 435.265,347.66 443.5,325.5C 444.265,325.077 445.098,324.743 446,324.5C 456.71,329.044 467.543,333.044 478.5,336.5 Z"/></g>
<g><path style="opacity:1" fill="#182a4f" d="M 250.5,320.5 C 252.484,320.484 253.484,321.484 253.5,323.5C 250.425,326.945 251.092,328.945 255.5,329.5C 255.5,344.167 255.5,358.833 255.5,373.5C 253.208,373.244 251.041,373.577 249,374.5C 247.915,373.707 246.748,373.04 245.5,372.5C 244.667,357.845 244.167,343.178 244,328.5C 242.378,327.901 240.878,327.234 239.5,326.5C 243.329,327.069 246.663,326.402 249.5,324.5C 250.434,323.432 250.768,322.099 250.5,320.5 Z"/></g>
<g><path style="opacity:1" fill="#8cb666" d="M 375.5,330.5 C 378.577,330.347 381.411,331.014 384,332.5C 385.107,332.415 386.107,332.081 387,331.5C 387.745,332.99 388.912,333.99 390.5,334.5C 394.203,335.44 397.703,336.773 401,338.5C 402.841,337.438 404.674,336.438 406.5,335.5C 405.935,338.421 404.768,341.088 403,343.5C 402.617,342.944 402.117,342.611 401.5,342.5C 401.047,341.542 400.381,340.708 399.5,340C 391.157,337.428 383.157,334.261 375.5,330.5 Z"/></g>
<g><path style="opacity:0.133" fill="#c5cce2" d="M 135.5,333.5 C 135.008,335.819 134.008,337.819 132.5,339.5C 132.461,336.911 133.461,334.911 135.5,333.5 Z"/></g>
<g><path style="opacity:0.663" fill="#d7c5b2" d="M 478.5,336.5 C 481.243,338.239 483.243,340.573 484.5,343.5C 481.757,341.761 479.757,339.427 478.5,336.5 Z"/></g>
<g><path style="opacity:1" fill="#40423f" d="M 363.5,327.5 C 367.515,328.512 371.515,329.512 375.5,330.5C 383.157,334.261 391.157,337.428 399.5,340C 400.381,340.708 401.047,341.542 401.5,342.5C 401.5,344.167 401.5,345.833 401.5,347.5C 400.833,347.833 400.167,348.167 399.5,348.5C 393.989,348.326 388.655,347.326 383.5,345.5C 381.035,345.233 378.701,344.566 376.5,343.5C 370.545,340.435 364.378,337.435 358,334.5C 355.729,329.252 357.563,326.918 363.5,327.5 Z"/></g>
<g><path style="opacity:1" fill="#4b6039" d="M 383.5,345.5 C 388.655,347.326 393.989,348.326 399.5,348.5C 393.776,350.048 388.443,349.048 383.5,345.5 Z"/></g>
<g><path style="opacity:0.157" fill="#ede0d5" d="M 484.5,343.5 C 486.873,345.579 488.206,348.246 488.5,351.5C 486.659,349.151 485.326,346.485 484.5,343.5 Z"/></g>
<g><path style="opacity:1" fill="#92be6b" d="M 371.5,342.5 C 373.216,342.629 374.883,342.962 376.5,343.5C 378.701,344.566 381.035,345.233 383.5,345.5C 388.443,349.048 393.776,350.048 399.5,348.5C 400.167,348.167 400.833,347.833 401.5,347.5C 401.5,348.167 401.5,348.833 401.5,349.5C 400.778,349.918 400.278,350.584 400,351.5C 399.501,356.823 399.334,362.156 399.5,367.5C 398.5,367.5 397.5,367.5 396.5,367.5C 396.65,362.088 397.317,356.754 398.5,351.5C 395.603,351.319 392.77,351.652 390,352.5C 387.98,351.968 387.147,350.635 387.5,348.5C 381.25,348.602 375.917,346.602 371.5,342.5 Z"/></g>
<g><path style="opacity:1" fill="#b2d697" d="M 317.5,332.5 C 316.179,338.297 314.346,343.963 312,349.5C 311.667,352.167 311.333,354.833 311,357.5C 308.218,361.703 306.884,366.37 307,371.5C 303.09,376.035 301.59,381.369 302.5,387.5C 301.518,384.038 301.185,380.371 301.5,376.5C 305.868,361.388 311.202,346.721 317.5,332.5 Z"/></g>
<g><path style="opacity:1" fill="#233258" d="M 225.5,410.5 C 222.833,410.5 220.167,410.5 217.5,410.5C 215.46,409.278 215.46,407.611 217.5,405.5C 218.826,391.672 218.826,378.006 217.5,364.5C 215.184,358.193 212.018,357.859 208,363.5C 207.5,377.496 207.333,391.496 207.5,405.5C 206.174,390.328 206.174,374.995 207.5,359.5C 212.711,356.933 212.711,354.433 207.5,352C 211.251,349.794 213.418,350.961 214,355.5C 217.7,358.035 220.866,361.035 223.5,364.5C 223.595,376.051 223.428,387.718 223,399.5C 221.69,388.992 221.023,378.325 221,367.5C 220.667,367.833 220.333,368.167 220,368.5C 219.232,379.853 219.399,391.187 220.5,402.5C 220.594,404.912 219.594,406.745 217.5,408C 220.522,408.098 223.189,408.932 225.5,410.5 Z"/></g>
<g><path style="opacity:0.827" fill="#ccb8a8" d="M 488.5,351.5 C 491.48,360.406 490.814,369.073 486.5,377.5C 488.249,368.951 488.916,360.284 488.5,351.5 Z"/></g>
<g><path style="opacity:0.357" fill="#c5ccdc" d="M 132.5,339.5 C 132.222,361.522 132.555,383.522 133.5,405.5C 132.71,404.391 132.21,403.058 132,401.5C 130.893,382.509 130.559,363.509 131,344.5C 131.198,342.618 131.698,340.952 132.5,339.5 Z"/></g>
<g><path style="opacity:1" fill="#404049" d="M 217.5,364.5 C 218.826,378.006 218.826,391.672 217.5,405.5C 215.46,407.611 215.46,409.278 217.5,410.5C 213.5,410.5 209.5,410.5 205.5,410.5C 209.57,409.875 210.236,408.208 207.5,405.5C 207.333,391.496 207.5,377.496 208,363.5C 212.018,357.859 215.184,358.193 217.5,364.5 Z"/></g>
<g><path style="opacity:1" fill="#404142" d="M 217.5,364.5 C 217.667,376.171 217.5,387.838 217,399.5C 216.333,400.833 215.667,400.833 215,399.5C 214.5,389.172 214.334,378.839 214.5,368.5C 213.5,368.5 212.5,368.5 211.5,368.5C 211.666,378.839 211.5,389.172 211,399.5C 210.333,400.167 209.667,400.833 209,401.5C 208.333,389.167 208.333,376.833 209,364.5C 211.832,363.214 214.665,363.214 217.5,364.5 Z"/></g>
<g><path style="opacity:1" fill="#dcd3a2" d="M 401.5,349.5 C 398.326,365.308 402.66,378.641 414.5,389.5C 406.307,384.313 401.307,376.98 399.5,367.5C 399.334,362.156 399.501,356.823 400,351.5C 400.278,350.584 400.778,349.918 401.5,349.5 Z"/></g>
<g><path style="opacity:0.306" fill="#e1ccb9" d="M 486.5,377.5 C 486.293,380.241 485.293,382.574 483.5,384.5C 483.552,381.654 484.552,379.32 486.5,377.5 Z"/></g>
<g><path style="opacity:0.494" fill="#d5edca" d="M 301.5,376.5 C 301.185,380.371 301.518,384.038 302.5,387.5C 302.517,389.565 302.85,391.565 303.5,393.5C 302.883,393.389 302.383,393.056 302,392.5C 300.853,389.245 300.02,385.912 299.5,382.5C 299.599,380.201 300.266,378.201 301.5,376.5 Z"/></g>
<g><path style="opacity:0.035" fill="#ede4d3" d="M 479.5,390.5 C 478.833,393.167 477.167,394.833 474.5,395.5C 475.833,393.5 477.5,391.833 479.5,390.5 Z"/></g>
<g><path style="opacity:0.024" fill="#e0f4ca" d="M 303.5,393.5 C 305.5,394.833 307.167,396.5 308.5,398.5C 305.833,397.833 304.167,396.167 303.5,393.5 Z"/></g>
<g><path style="opacity:0.62" fill="#d2bcad" d="M 424.5,394.5 C 427.916,394.528 430.916,395.528 433.5,397.5C 430.215,397.072 427.215,396.072 424.5,394.5 Z"/></g>
<g><path style="opacity:1" fill="#927158" d="M 419.5,392.5 C 424.84,393.223 430.173,394.057 435.5,395C 438.761,397.426 442.427,399.093 446.5,400C 452.856,400.594 459.189,400.427 465.5,399.5C 460.227,402.003 454.561,403.003 448.5,402.5C 445.848,402.59 443.515,401.924 441.5,400.5C 439.316,398.415 436.649,397.415 433.5,397.5C 430.916,395.528 427.916,394.528 424.5,394.5C 422.597,394.204 420.93,393.537 419.5,392.5 Z"/></g>
<g><path style="opacity:0.016" fill="#eee3dc" d="M 473.5,396.5 C 473.027,397.906 472.027,398.573 470.5,398.5C 470.973,397.094 471.973,396.427 473.5,396.5 Z"/></g>
<g><path style="opacity:0.58" fill="#d3bead" d="M 433.5,397.5 C 436.649,397.415 439.316,398.415 441.5,400.5C 438.458,400.267 435.792,399.267 433.5,397.5 Z"/></g>
<g><path style="opacity:0.992" fill="#6e7491" d="M 293.5,399.5 C 293.58,402.781 292.913,405.781 291.5,408.5C 291.336,405.813 291.503,403.146 292,400.5C 292.383,399.944 292.883,399.611 293.5,399.5 Z"/></g>
<g><path style="opacity:0.176" fill="#e8d7c9" d="M 470.5,398.5 C 463.685,403.041 456.351,404.374 448.5,402.5C 454.561,403.003 460.227,402.003 465.5,399.5C 467.117,398.962 468.784,398.629 470.5,398.5 Z"/></g>
<g><path style="opacity:0.435" fill="#d2ecc2" d="M 308.5,398.5 C 317.018,401.449 325.351,404.782 333.5,408.5C 326.686,406.84 320.019,404.673 313.5,402C 311.416,401.303 309.749,400.136 308.5,398.5 Z"/></g>
<g><path style="opacity:1" fill="#828aa2" d="M 133.5,405.5 C 134.558,406.6 135.392,407.934 136,409.5C 136.333,409.167 136.667,408.833 137,408.5C 137.495,410.473 137.662,412.473 137.5,414.5C 135.375,411.912 134.042,408.912 133.5,405.5 Z"/></g>
<g><path style="opacity:0.718" fill="#d8eec7" d="M 333.5,408.5 C 338.095,409.032 342.429,410.365 346.5,412.5C 346.5,412.833 346.5,413.167 346.5,413.5C 341.856,412.401 337.522,410.734 333.5,408.5 Z"/></g>
<g><path style="opacity:1" fill="#edccb1" d="M 205.5,410.5 C 209.5,410.5 213.5,410.5 217.5,410.5C 220.167,410.5 222.833,410.5 225.5,410.5C 226.78,411.931 228.447,412.598 230.5,412.5C 241.464,417.795 247.797,426.462 249.5,438.5C 251.167,438.5 252.833,438.5 254.5,438.5C 252.781,439.022 251.448,440.022 250.5,441.5C 225.833,441.5 201.167,441.5 176.5,441.5C 178.613,434.608 181.28,427.941 184.5,421.5C 189.728,414.633 196.728,410.967 205.5,410.5 Z"/></g>
<g><path style="opacity:0.071" fill="#e0e2ef" d="M 289.5,413.5 C 289.25,415.674 288.25,417.341 286.5,418.5C 286.75,416.326 287.75,414.659 289.5,413.5 Z"/></g>
<g><path style="opacity:0.149" fill="#c5d3e3" d="M 138.5,416.5 C 139.906,416.973 140.573,417.973 140.5,419.5C 139.094,419.027 138.427,418.027 138.5,416.5 Z"/></g>
<g><path style="opacity:1" fill="#2b365b" d="M 230.5,412.5 C 232.262,412.357 233.929,412.691 235.5,413.5C 238.526,416.195 241.526,418.862 244.5,421.5C 245.635,419.293 246.301,416.96 246.5,414.5C 254.982,415.44 257.815,419.773 255,427.5C 253.955,424.564 253.121,421.564 252.5,418.5C 251.635,417.417 250.635,417.251 249.5,418C 246.793,419.864 245.959,422.364 247,425.5C 248.935,428.93 250.101,432.597 250.5,436.5C 252.833,436.5 255.167,436.5 257.5,436.5C 256.833,437.167 256.167,437.833 255.5,438.5C 255.167,438.5 254.833,438.5 254.5,438.5C 252.833,438.5 251.167,438.5 249.5,438.5C 247.797,426.462 241.464,417.795 230.5,412.5 Z"/></g>
<g><path style="opacity:0.928" fill="#b1d294" d="M 414.5,389.5 C 415.434,390.568 415.768,391.901 415.5,393.5C 410.092,406.07 400.759,414.236 387.5,418C 373.372,421.36 359.705,419.86 346.5,413.5C 346.5,413.167 346.5,412.833 346.5,412.5C 355.826,414.494 365.159,416.494 374.5,418.5C 379.579,417.867 384.579,416.867 389.5,415.5C 391.85,415.292 393.516,414.125 394.5,412C 396.134,411.506 397.801,411.34 399.5,411.5C 399.5,410.5 399.5,409.5 399.5,408.5C 403.693,408.638 406.027,406.638 406.5,402.5C 407.5,402.5 408.5,402.5 409.5,402.5C 410.64,399.975 411.307,397.308 411.5,394.5C 412.5,394.5 413.5,394.5 414.5,394.5C 414.5,392.833 414.5,391.167 414.5,389.5 Z"/></g>
<g><path style="opacity:0.004" fill="#e4e8f3" d="M 286.5,418.5 C 286.262,420.404 285.262,421.738 283.5,422.5C 283.5,421.833 283.5,421.167 283.5,420.5C 284.5,419.833 285.5,419.167 286.5,418.5 Z"/></g>
<g><path style="opacity:0.541" fill="#9fabbb" d="M 140.5,419.5 C 142.531,420.539 143.864,422.205 144.5,424.5C 142.457,423.421 141.124,421.754 140.5,419.5 Z"/></g>
<g><path style="opacity:0.714" fill="#9ea7b9" d="M 144.5,424.5 C 146.749,425.08 148.415,426.413 149.5,428.5C 147.251,427.92 145.585,426.587 144.5,424.5 Z"/></g>
<g><path style="opacity:1" fill="#555f82" d="M 283.5,420.5 C 283.5,421.167 283.5,421.833 283.5,422.5C 279.249,427.957 273.915,431.957 267.5,434.5C 267.167,434.5 266.833,434.5 266.5,434.5C 266.881,433.069 267.881,432.236 269.5,432C 269.167,431.667 268.833,431.333 268.5,431C 270.134,430.506 271.801,430.34 273.5,430.5C 273.5,429.5 273.5,428.5 273.5,427.5C 274.5,427.5 275.5,427.5 276.5,427.5C 276.5,426.5 276.5,425.5 276.5,424.5C 279.598,424.587 279.932,424.087 277.5,423C 278.325,421.312 279.325,421.145 280.5,422.5C 281.167,421.167 281.833,419.833 282.5,418.5C 283.298,418.957 283.631,419.624 283.5,420.5 Z"/></g>
<g><path style="opacity:0.427" fill="#aab0c6" d="M 153.5,431.5 C 155.027,431.427 156.027,432.094 156.5,433.5C 154.973,433.573 153.973,432.906 153.5,431.5 Z"/></g>
<g><path style="opacity:0.682" fill="#8c94ab" d="M 156.5,433.5 C 160.325,434.074 163.991,435.241 167.5,437C 170.482,437.498 173.482,437.665 176.5,437.5C 175.432,438.434 174.099,438.768 172.5,438.5C 166.585,438.416 161.252,436.749 156.5,433.5 Z"/></g>
<g><path style="opacity:0.298" fill="#acb5ca" d="M 266.5,434.5 C 266.833,434.5 267.167,434.5 267.5,434.5C 263.915,436.806 259.915,438.139 255.5,438.5C 256.167,437.833 256.833,437.167 257.5,436.5C 260.598,436.244 263.598,435.578 266.5,434.5 Z"/></g>
<g><path style="opacity:1" fill="#895d3a" d="M 221.5,499.5 C 215.5,499.5 209.5,499.5 203.5,499.5C 200.453,496.81 196.787,495.476 192.5,495.5C 192.5,495.167 192.5,494.833 192.5,494.5C 192.719,493.325 192.386,492.325 191.5,491.5C 186.668,488.834 183.002,485.001 180.5,480C 180.833,479.667 181.167,479.333 181.5,479C 180.193,474.771 179.193,470.437 178.5,466C 179.714,458.167 179.714,450.334 178.5,442.5C 201.833,442.5 225.167,442.5 248.5,442.5C 248.926,452.912 248.426,463.246 247,473.5C 243.917,476.753 241.417,480.42 239.5,484.5C 235.414,485.691 231.581,487.358 228,489.5C 227.333,490.167 227.333,490.833 228,491.5C 230.951,488.389 234.451,487.389 238.5,488.5C 236.014,489.82 234.014,491.653 232.5,494C 228.181,494.888 224.514,496.721 221.5,499.5 Z"/></g>
<g><path style="opacity:0.224" fill="#e6d4c6" d="M 184.5,421.5 C 181.28,427.941 178.613,434.608 176.5,441.5C 176.333,452.172 176.5,462.839 177,473.5C 178.235,477.631 179.735,481.631 181.5,485.5C 178.643,482.454 176.81,478.787 176,474.5C 175.5,462.838 175.333,451.171 175.5,439.5C 174.209,439.737 173.209,439.404 172.5,438.5C 174.099,438.768 175.432,438.434 176.5,437.5C 177.852,431.403 180.519,426.069 184.5,421.5 Z"/></g>
<g><path style="opacity:1" fill="#af9580" d="M 249.5,474.5 C 249.154,478.852 247.488,482.519 244.5,485.5C 244.586,484.504 244.252,483.671 243.5,483C 245.904,480.323 247.904,477.49 249.5,474.5 Z"/></g>
<g><path style="opacity:1" fill="#916b4e" d="M 176.5,441.5 C 201.167,441.5 225.833,441.5 250.5,441.5C 250.828,452.679 250.495,463.679 249.5,474.5C 247.904,477.49 245.904,480.323 243.5,483C 244.252,483.671 244.586,484.504 244.5,485.5C 243.243,488.427 241.243,490.761 238.5,492.5C 236.973,492.427 235.973,493.094 235.5,494.5C 232.314,495.597 229.314,496.93 226.5,498.5C 226.5,498.833 226.5,499.167 226.5,499.5C 224.833,499.5 223.167,499.5 221.5,499.5C 224.514,496.721 228.181,494.888 232.5,494C 234.014,491.653 236.014,489.82 238.5,488.5C 234.451,487.389 230.951,488.389 228,491.5C 227.333,490.833 227.333,490.167 228,489.5C 231.581,487.358 235.414,485.691 239.5,484.5C 241.417,480.42 243.917,476.753 247,473.5C 248.426,463.246 248.926,452.912 248.5,442.5C 225.167,442.5 201.833,442.5 178.5,442.5C 179.714,450.334 179.714,458.167 178.5,466C 179.193,470.437 180.193,474.771 181.5,479C 181.167,479.333 180.833,479.667 180.5,480C 183.002,485.001 186.668,488.834 191.5,491.5C 192.386,492.325 192.719,493.325 192.5,494.5C 191.609,493.89 190.609,493.557 189.5,493.5C 188.415,491.413 186.749,490.08 184.5,489.5C 184.262,487.596 183.262,486.262 181.5,485.5C 179.735,481.631 178.235,477.631 177,473.5C 176.5,462.839 176.333,452.172 176.5,441.5 Z"/></g>
<g><path style="opacity:0.008" fill="#ede2d7" d="M 181.5,485.5 C 183.262,486.262 184.262,487.596 184.5,489.5C 182.738,488.738 181.738,487.404 181.5,485.5 Z"/></g>
<g><path style="opacity:0.573" fill="#dbcbbd" d="M 184.5,489.5 C 186.749,490.08 188.415,491.413 189.5,493.5C 187.251,492.92 185.585,491.587 184.5,489.5 Z"/></g>
<g><path style="opacity:0.02" fill="#f4eee5" d="M 238.5,492.5 C 238.027,493.906 237.027,494.573 235.5,494.5C 235.973,493.094 236.973,492.427 238.5,492.5 Z"/></g>
<g><path style="opacity:0.267" fill="#e2cdb9" d="M 189.5,493.5 C 190.609,493.557 191.609,493.89 192.5,494.5C 192.5,494.833 192.5,495.167 192.5,495.5C 190.973,495.573 189.973,494.906 189.5,493.5 Z"/></g>
<g><path style="opacity:0.122" fill="#ebe0d5" d="M 235.5,494.5 C 233.165,497.165 230.165,498.498 226.5,498.5C 229.314,496.93 232.314,495.597 235.5,494.5 Z"/></g>
<g><path style="opacity:1" fill="#ab8f7a" d="M 192.5,495.5 C 196.787,495.476 200.453,496.81 203.5,499.5C 202.167,499.5 200.833,499.5 199.5,499.5C 197.036,498.433 194.703,497.1 192.5,495.5 Z"/></g>
</svg>
